<?xml version="1.0" encoding="utf-8"?>
<!-- Generator: Adobe Illustrator 25.3.0, SVG Export Plug-In . SVG Version: 6.00 Build 0)  -->
<svg version="1.1" id="Livello_1" xmlns="http://www.w3.org/2000/svg" xmlns:xlink="http://www.w3.org/1999/xlink" x="0px" y="0px"
	 viewBox="0 0 1440 900" style="enable-background:new 0 0 1440 900;" xml:space="preserve">
<style type="text/css">
	.st0{clip-path:url(#SVGID_2_);}
	.st1{fill:none;stroke:#FFFFFF;stroke-width:0.2;stroke-miterlimit:10;}
</style>
<g>
	<defs>
		<rect id="SVGID_1_" width="1440" height="900"/>
	</defs>
	<clipPath id="SVGID_2_">
		<use xlink:href="#SVGID_1_"  style="overflow:visible;"/>
	</clipPath>
	<g id="Livello_2_1_" class="st0">
		<g id="Livello_1-2">
			<path class="st1" d="M120.8-31c0-40.8,17.2-40.8,17.2-81.5s-17.2-40.8-17.2-81.5"/>
			<path class="st1" d="M109.2-194c0,40.5-17.2,40.6-17.2,81.3s17.2,40.8,17.2,81.5v0.2"/>
			<path class="st1" d="M129.7-31c0-40.8,34.5-40.8,34.5-81.5s-34.5-40.8-34.5-81.5"/>
			<path class="st1" d="M120.8-194c0,40.8,17.2,40.8,17.2,81.5S120.8-71.8,120.8-31"/>
			<path class="st1" d="M143-31c0-40.8,43.1-40.8,43.1-81.5S143-153.3,143-194"/>
			<path class="st1" d="M129.7-194c0,40.8,34.5,40.8,34.5,81.5S129.7-71.8,129.7-31"/>
			<path class="st1" d="M87-31v-0.2C87-72,43.9-72,43.9-112.7S86.9-153.5,87-194"/>
			<path class="st1" d="M73.8-194c-0.2,40.5-51.6,40.6-51.6,81.3S73.9-72,73.9-31.2c0,0.1,0,0.1,0,0.2"/>
			<path class="st1" d="M109.2-31v-0.2c0-40.8-17.2-40.8-17.2-81.5s17.2-40.8,17.2-81.3"/>
			<path class="st1" d="M100.2-194c0,40.5-34.4,40.6-34.4,81.3s34.5,40.8,34.5,81.5c0,0.1,0,0.1,0,0.2"/>
			<path class="st1" d="M100.2-31c0,0,0-0.1,0-0.2c0-40.8-34.5-40.8-34.5-81.5s34.5-40.8,34.5-81.3"/>
			<path class="st1" d="M87-194c-0.1,40.5-43.1,40.6-43.1,81.3S87-72,87-31.2v0.2"/>
			<path class="st1" d="M73.8-31c0,0,0-0.1,0-0.2c0-40.8-51.7-40.8-51.7-81.5s51.5-40.8,51.7-81.3"/>
			<path class="st1" d="M60.8-194C60.6-153.5,0-153.4,0-112.7S60.8-72,60.8-31.2v0.2"/>
			<path class="st1" d="M156.2-31c0-40.8,51.7-40.8,51.7-81.5s-51.7-40.8-51.7-81.5"/>
			<path class="st1" d="M143-194c0,40.8,43.1,40.8,43.1,81.5S143-71.8,143-31"/>
			<path class="st1" d="M169.1-31c0-40.8,60.9-40.8,60.9-81.5s-60.9-40.8-60.9-81.5"/>
			<path class="st1" d="M156.2-194c0,40.8,51.7,40.8,51.7,81.5S156.2-71.8,156.2-31"/>
			<path class="st1" d="M120.8,295.1c0-40.8,17.2-40.8,17.2-81.5s-17.2-40.8-17.2-81.5"/>
			<path class="st1" d="M109.2,132c0,40.5-17.2,40.6-17.2,81.3s17.2,40.8,17.2,81.5v0.2"/>
			<path class="st1" d="M129.7,295.1c0-40.8,34.5-40.8,34.5-81.5s-34.5-40.8-34.5-81.5"/>
			<path class="st1" d="M120.8,132c0,40.8,17.2,40.8,17.2,81.5s-17.2,40.8-17.2,81.5"/>
			<path class="st1" d="M143,295.1c0-40.8,43.1-40.8,43.1-81.5S143,172.8,143,132"/>
			<path class="st1" d="M129.7,132c0,40.8,34.5,40.8,34.5,81.5s-34.5,40.8-34.5,81.5"/>
			<path class="st1" d="M87,295.1v-0.2c0-40.8-43.1-40.8-43.1-81.5S86.9,172.6,87,132"/>
			<path class="st1" d="M73.8,132c-0.2,40.5-51.6,40.6-51.6,81.3s51.7,40.8,51.7,81.5c0,0,0,0.1,0,0.2"/>
			<path class="st1" d="M109.2,295.1v-0.2c0-40.8-17.2-40.8-17.2-81.5s17.2-40.8,17.2-81.3"/>
			<path class="st1" d="M100.2,132c-0.1,40.5-34.5,40.6-34.5,81.3s34.5,40.8,34.5,81.5c0,0,0,0.1,0,0.2"/>
			<path class="st1" d="M100.2,295.1c0-0.1,0-0.1,0-0.2c0-40.8-34.5-40.8-34.5-81.5s34.5-40.8,34.5-81.3"/>
			<path class="st1" d="M87,132c-0.1,40.5-43.1,40.6-43.1,81.3S87,254.1,87,294.9v0.2"/>
			<path class="st1" d="M73.8,295.1c0-0.1,0-0.1,0-0.2c0-40.8-51.7-40.8-51.7-81.5s51.5-40.8,51.7-81.3"/>
			<path class="st1" d="M60.8,132C60.6,172.6,0,172.6,0,213.3s60.8,40.8,60.8,81.5v0.2"/>
			<path class="st1" d="M156.2,295.1c0-40.8,51.7-40.8,51.7-81.5s-51.7-40.8-51.7-81.5"/>
			<path class="st1" d="M143,132c0,40.8,43.1,40.8,43.1,81.5S143,254.3,143,295.1"/>
			<path class="st1" d="M169.1,295.1c0-40.8,60.9-40.8,60.9-81.5s-60.9-40.8-60.9-81.5"/>
			<path class="st1" d="M156.2,132c0,40.8,51.7,40.8,51.7,81.5s-51.7,40.8-51.7,81.5"/>
			<path class="st1" d="M120.8,621.1c0-40.8,17.2-40.8,17.2-81.5s-17.2-40.8-17.2-81.5"/>
			<path class="st1" d="M109.2,458.1c0,40.5-17.2,40.6-17.2,81.3c0,40.7,17.2,40.8,17.2,81.5v0.2"/>
			<path class="st1" d="M129.7,621.1c0-40.8,34.5-40.8,34.5-81.5s-34.5-40.8-34.5-81.5"/>
			<path class="st1" d="M120.8,458.1c0,40.8,17.2,40.8,17.2,81.5s-17.2,40.8-17.2,81.5"/>
			<path class="st1" d="M143,621.1c0-40.8,43.1-40.8,43.1-81.5S143,498.9,143,458.1"/>
			<path class="st1" d="M129.7,458.1c0,40.8,34.5,40.8,34.5,81.5s-34.5,40.8-34.5,81.5"/>
			<path class="st1" d="M87,621.1v-0.2c0-40.8-43.1-40.8-43.1-81.5c0-40.8,42.9-40.8,43.1-81.3"/>
			<path class="st1" d="M73.8,458.1c-0.2,40.5-51.6,40.6-51.6,81.3c0,40.7,51.7,40.8,51.7,81.5c0,0,0,0.1,0,0.2"/>
			<path class="st1" d="M109.2,621.1v-0.2c0-40.8-17.2-40.8-17.2-81.5c0-40.8,17.2-40.8,17.2-81.3"/>
			<path class="st1" d="M100.2,458.1c-0.1,40.5-34.5,40.6-34.5,81.3c0,40.7,34.5,40.8,34.5,81.5c0,0,0,0.1,0,0.2"/>
			<path class="st1" d="M100.2,621.1c0,0,0-0.1,0-0.2c0-40.8-34.5-40.8-34.5-81.5c0-40.8,34.5-40.8,34.5-81.3"/>
			<path class="st1" d="M87,458.1c-0.1,40.5-43.1,40.6-43.1,81.3c0,40.7,43.1,40.8,43.1,81.5v0.2"/>
			<path class="st1" d="M73.8,621.1c0,0,0-0.1,0-0.2c0-40.8-51.7-40.8-51.7-81.5c0-40.8,51.5-40.8,51.7-81.3"/>
			<path class="st1" d="M60.8,458.1C60.6,498.6,0,498.7,0,539.4c0,40.7,60.8,40.8,60.8,81.5v0.2"/>
			<path class="st1" d="M156.2,621.1c0-40.8,51.7-40.8,51.7-81.5s-51.7-40.8-51.7-81.5"/>
			<path class="st1" d="M143,458.1c0,40.8,43.1,40.8,43.1,81.5S143,580.4,143,621.1"/>
			<path class="st1" d="M169.1,621.1c0-40.8,60.9-40.8,60.9-81.5s-60.9-40.8-60.9-81.5"/>
			<path class="st1" d="M156.2,458.1c0,40.8,51.7,40.8,51.7,81.5s-51.7,40.8-51.7,81.5"/>
			<path class="st1" d="M120.8,458.1c0-40.8,17.2-40.8,17.2-81.5s-17.2-40.8-17.2-81.5"/>
			<path class="st1" d="M109.2,295.1c0,40.5-17.2,40.6-17.2,81.3s17.2,40.8,17.2,81.5v0.2"/>
			<path class="st1" d="M129.7,458.1c0-40.8,34.5-40.8,34.5-81.5s-34.5-40.8-34.5-81.5"/>
			<path class="st1" d="M120.8,295.1c0,40.8,17.2,40.8,17.2,81.5s-17.2,40.8-17.2,81.5"/>
			<path class="st1" d="M143,458.1c0-40.8,43.1-40.8,43.1-81.5S143,335.8,143,295.1"/>
			<path class="st1" d="M129.7,295.1c0,40.8,34.5,40.8,34.5,81.5s-34.5,40.8-34.5,81.5"/>
			<path class="st1" d="M87,458.1v-0.2c0-40.8-43.1-40.8-43.1-81.5s42.9-40.8,43.1-81.3"/>
			<path class="st1" d="M73.8,295.1c-0.2,40.5-51.6,40.6-51.6,81.3s51.7,40.8,51.7,81.5c0,0,0,0.1,0,0.2"/>
			<path class="st1" d="M109.2,458.1v-0.2c0-40.8-17.2-40.8-17.2-81.5s17.2-40.8,17.2-81.3"/>
			<path class="st1" d="M100.2,295.1c-0.1,40.5-34.5,40.6-34.5,81.3s34.5,40.8,34.5,81.5c0,0,0,0.1,0,0.2"/>
			<path class="st1" d="M100.2,458.1c0-0.1,0-0.1,0-0.2c0-40.8-34.5-40.8-34.5-81.5s34.5-40.8,34.5-81.3"/>
			<path class="st1" d="M87,295.1c-0.1,40.5-43.1,40.6-43.1,81.3S87,417.1,87,457.9v0.2"/>
			<path class="st1" d="M73.8,458.1c0-0.1,0-0.1,0-0.2c0-40.8-51.7-40.8-51.7-81.5s51.5-40.8,51.7-81.3"/>
			<path class="st1" d="M60.8,295.1C60.6,335.6,0,335.7,0,376.4s60.8,40.8,60.8,81.5v0.2"/>
			<path class="st1" d="M156.2,458.1c0-40.8,51.7-40.8,51.7-81.5s-51.7-40.8-51.7-81.5"/>
			<path class="st1" d="M143,295.1c0,40.8,43.1,40.8,43.1,81.5S143,417.3,143,458.1"/>
			<path class="st1" d="M169.1,458.1c0-40.8,60.9-40.8,60.9-81.5s-60.9-40.8-60.9-81.5"/>
			<path class="st1" d="M156.2,295.1c0,40.8,51.7,40.8,51.7,81.5s-51.7,40.8-51.7,81.5"/>
			<path class="st1" d="M120.8,132c0-40.8,17.2-40.8,17.2-81.5S120.8,9.7,120.8-31"/>
			<path class="st1" d="M109.2-31c0,40.5-17.2,40.6-17.2,81.3s17.2,40.8,17.2,81.5v0.2"/>
			<path class="st1" d="M129.7,132c0-40.8,34.5-40.8,34.5-81.5S129.7,9.7,129.7-31"/>
			<path class="st1" d="M120.8-31c0,40.8,17.2,40.8,17.2,81.5s-17.2,40.8-17.2,81.5"/>
			<path class="st1" d="M143,132c0-40.8,43.1-40.8,43.1-81.5S143,9.7,143-31"/>
			<path class="st1" d="M129.7-31c0,40.8,34.5,40.8,34.5,81.5s-34.5,40.8-34.5,81.5"/>
			<path class="st1" d="M87,132v-0.2c0-40.8-43.1-40.8-43.1-81.5S86.9,9.5,87-31"/>
			<path class="st1" d="M73.8-31C73.6,9.5,22.2,9.6,22.2,50.3s51.7,40.8,51.7,81.5c0,0.1,0,0.1,0,0.2"/>
			<path class="st1" d="M109.2,132v-0.2c0-40.8-17.2-40.8-17.2-81.5S109.1,9.5,109.2-31"/>
			<path class="st1" d="M100.2-31C100.1,9.5,65.7,9.6,65.7,50.3s34.5,40.8,34.5,81.5c0,0.1,0,0.1,0,0.2"/>
			<path class="st1" d="M100.2,132c0-0.1,0-0.1,0-0.2c0-40.8-34.5-40.8-34.5-81.5S100.2,9.5,100.2-31"/>
			<path class="st1" d="M87-31C86.9,9.5,43.9,9.6,43.9,50.3S87,91.1,87,131.8v0.2"/>
			<path class="st1" d="M73.8,132c0-0.1,0-0.1,0-0.2c0-40.8-51.7-40.8-51.7-81.5S73.6,9.5,73.8-31"/>
			<path class="st1" d="M60.8-31C60.6,9.5,0,9.6,0,50.3s60.8,40.8,60.8,81.5v0.2"/>
			<path class="st1" d="M156.2,132c0-40.8,51.7-40.8,51.7-81.5S156.2,9.7,156.2-31"/>
			<path class="st1" d="M143-31C143,9.7,186,9.7,186,50.5S143,91.3,143,132"/>
			<path class="st1" d="M169.1,132c0-40.8,60.9-40.8,60.9-81.5S169.1,9.7,169.1-31"/>
			<path class="st1" d="M156.2-31c0,40.8,51.7,40.8,51.7,81.5s-51.7,40.8-51.7,81.5"/>
			<path class="st1" d="M120.8,784.2c0-40.8,17.2-40.8,17.2-81.5c0-40.8-17.2-40.8-17.2-81.5"/>
			<path class="st1" d="M109.2,621.1c0,40.5-17.2,40.6-17.2,81.3s17.2,40.8,17.2,81.5v0.2"/>
			<path class="st1" d="M129.7,784.2c0-40.8,34.5-40.8,34.5-81.5c0-40.8-34.5-40.8-34.5-81.5"/>
			<path class="st1" d="M120.8,621.1c0,40.8,17.2,40.8,17.2,81.5c0,40.8-17.2,40.8-17.2,81.5"/>
			<path class="st1" d="M143,784.2c0-40.8,43.1-40.8,43.1-81.5c0-40.8-43.1-40.8-43.1-81.5"/>
			<path class="st1" d="M129.7,621.1c0,40.8,34.5,40.8,34.5,81.5c0,40.8-34.5,40.8-34.5,81.5"/>
			<path class="st1" d="M87,784.2V784c0-40.8-43.1-40.8-43.1-81.5s42.9-40.8,43.1-81.3"/>
			<path class="st1" d="M73.8,621.1c-0.2,40.5-51.6,40.6-51.6,81.3s51.7,40.8,51.7,81.5c0,0,0,0.1,0,0.2"/>
			<path class="st1" d="M109.2,784.2V784c0-40.8-17.2-40.8-17.2-81.5s17.2-40.8,17.2-81.3"/>
			<path class="st1" d="M100.2,621.1c-0.1,40.5-34.5,40.6-34.5,81.3s34.5,40.8,34.5,81.5c0,0,0,0.1,0,0.2"/>
			<path class="st1" d="M100.2,784.2c0,0,0-0.1,0-0.2c0-40.8-34.5-40.8-34.5-81.5s34.5-40.8,34.5-81.3"/>
			<path class="st1" d="M87,621.1c-0.1,40.5-43.1,40.6-43.1,81.3S87,743.2,87,784v0.2"/>
			<path class="st1" d="M73.8,784.2c0,0,0-0.1,0-0.2c0-40.8-51.7-40.8-51.7-81.5s51.5-40.8,51.7-81.3"/>
			<path class="st1" d="M60.8,621.1C60.6,661.7,0,661.7,0,702.4s60.8,40.8,60.8,81.5v0.2"/>
			<path class="st1" d="M156.2,784.2c0-40.8,51.7-40.8,51.7-81.5c0-40.8-51.7-40.8-51.7-81.5"/>
			<path class="st1" d="M143,621.1c0,40.8,43.1,40.8,43.1,81.5c0,40.8-43.1,40.8-43.1,81.5"/>
			<path class="st1" d="M169.1,784.2c0-40.8,60.9-40.8,60.9-81.5c0-40.8-60.9-40.8-60.9-81.5"/>
			<path class="st1" d="M156.2,621.1c0,40.8,51.7,40.8,51.7,81.5c0,40.8-51.7,40.8-51.7,81.5"/>
			<path class="st1" d="M120.8,1110.2c0-40.8,17.2-40.8,17.2-81.5c0-40.8-17.2-40.8-17.2-81.5"/>
			<path class="st1" d="M109.2,947.2c0,40.5-17.2,40.6-17.2,81.3c0,40.7,17.2,40.8,17.2,81.5v0.2"/>
			<path class="st1" d="M129.7,1110.2c0-40.8,34.5-40.8,34.5-81.5c0-40.8-34.5-40.8-34.5-81.5"/>
			<path class="st1" d="M120.8,947.2c0,40.8,17.2,40.8,17.2,81.5c0,40.8-17.2,40.8-17.2,81.5"/>
			<path class="st1" d="M143,1110.2c0-40.8,43.1-40.8,43.1-81.5C186,988,143,988,143,947.2"/>
			<path class="st1" d="M129.7,947.2c0,40.8,34.5,40.8,34.5,81.5c0,40.8-34.5,40.8-34.5,81.5"/>
			<path class="st1" d="M87,1110.2v-0.2c0-40.8-43.1-40.8-43.1-81.5c0-40.8,42.9-40.8,43.1-81.3"/>
			<path class="st1" d="M73.8,947.2c-0.2,40.5-51.6,40.6-51.6,81.3c0,40.7,51.7,40.8,51.7,81.5c0,0,0,0.1,0,0.2"/>
			<path class="st1" d="M109.2,1110.2v-0.2c0-40.8-17.2-40.8-17.2-81.5c0-40.8,17.2-40.8,17.2-81.3"/>
			<path class="st1" d="M100.2,947.2c-0.1,40.5-34.5,40.6-34.5,81.3c0,40.7,34.5,40.8,34.5,81.5c0,0,0,0.1,0,0.2"/>
			<path class="st1" d="M100.2,1110.2c0,0,0-0.1,0-0.2c0-40.8-34.5-40.8-34.5-81.5c0-40.8,34.5-40.8,34.5-81.3"/>
			<path class="st1" d="M87,947.2c-0.1,40.5-43.1,40.6-43.1,81.3c0,40.7,43.1,40.8,43.1,81.5v0.2"/>
			<path class="st1" d="M73.8,1110.2c0,0,0-0.1,0-0.2c0-40.8-51.7-40.8-51.7-81.5c0-40.8,51.5-40.8,51.7-81.3"/>
			<path class="st1" d="M60.8,947.2C60.6,987.7,0,987.8,0,1028.5c0,40.7,60.8,40.8,60.8,81.5v0.2"/>
			<path class="st1" d="M156.2,1110.2c0-40.8,51.7-40.8,51.7-81.5c0-40.8-51.7-40.8-51.7-81.5"/>
			<path class="st1" d="M143,947.2c0,40.8,43.1,40.8,43.1,81.5c0,40.8-43.1,40.8-43.1,81.5"/>
			<path class="st1" d="M169.1,1110.2c0-40.8,60.9-40.8,60.9-81.5c0-40.8-60.9-40.8-60.9-81.5"/>
			<path class="st1" d="M156.2,947.2c0,40.8,51.7,40.8,51.7,81.5c0,40.8-51.7,40.8-51.7,81.5"/>
			<path class="st1" d="M120.8,1273.3c0-40.8,17.2-40.8,17.2-81.5s-17.2-40.8-17.2-81.5"/>
			<path class="st1" d="M109.2,1110.2c0,40.5-17.2,40.6-17.2,81.3s17.2,40.8,17.2,81.5v0.2"/>
			<path class="st1" d="M129.7,1273.3c0-40.8,34.5-40.8,34.5-81.5s-34.5-40.8-34.5-81.5"/>
			<path class="st1" d="M120.8,1110.2c0,40.8,17.2,40.8,17.2,81.5s-17.2,40.8-17.2,81.5"/>
			<path class="st1" d="M143,1273.3c0-40.8,43.1-40.8,43.1-81.5S143,1151,143,1110.2"/>
			<path class="st1" d="M129.7,1110.2c0,40.8,34.5,40.8,34.5,81.5s-34.5,40.8-34.5,81.5"/>
			<path class="st1" d="M87,1273.3v-0.2c0-40.8-43.1-40.8-43.1-81.5s42.9-40.8,43.1-81.3"/>
			<path class="st1" d="M73.8,1110.2c-0.2,40.5-51.6,40.6-51.6,81.3s51.7,40.8,51.7,81.5c0,0.1,0,0.1,0,0.2"/>
			<path class="st1" d="M109.2,1273.3v-0.2c0-40.8-17.2-40.8-17.2-81.5s17.2-40.8,17.2-81.3"/>
			<path class="st1" d="M100.2,1110.2c-0.1,40.5-34.5,40.6-34.5,81.3s34.5,40.8,34.5,81.5c0,0.1,0,0.1,0,0.2"/>
			<path class="st1" d="M100.2,1273.3c0,0,0-0.1,0-0.2c0-40.8-34.5-40.8-34.5-81.5s34.5-40.8,34.5-81.3"/>
			<path class="st1" d="M87,1110.2c-0.1,40.5-43.1,40.6-43.1,81.3s43.1,40.8,43.1,81.5v0.2"/>
			<path class="st1" d="M73.8,1273.3c0,0,0-0.1,0-0.2c0-40.8-51.7-40.8-51.7-81.5s51.5-40.8,51.7-81.3"/>
			<path class="st1" d="M60.8,1110.2c-0.2,40.5-60.8,40.6-60.8,81.3s60.8,40.8,60.8,81.5v0.2"/>
			<path class="st1" d="M156.2,1273.3c0-40.8,51.7-40.8,51.7-81.5s-51.7-40.8-51.7-81.5"/>
			<path class="st1" d="M143,1110.2c0,40.8,43.1,40.8,43.1,81.5s-43.1,40.8-43.1,81.5"/>
			<path class="st1" d="M169.1,1273.3c0-40.8,60.9-40.8,60.9-81.5s-60.9-40.8-60.9-81.5"/>
			<path class="st1" d="M156.2,1110.2c0,40.8,51.7,40.8,51.7,81.5s-51.7,40.8-51.7,81.5"/>
			<path class="st1" d="M120.8,947.2c0-40.8,17.2-40.8,17.2-81.5c0-40.8-17.2-40.8-17.2-81.5"/>
			<path class="st1" d="M109.2,784.2c0,40.5-17.2,40.6-17.2,81.3c0,40.7,17.2,40.8,17.2,81.5v0.2"/>
			<path class="st1" d="M129.7,947.2c0-40.8,34.5-40.8,34.5-81.5c0-40.8-34.5-40.8-34.5-81.5"/>
			<path class="st1" d="M120.8,784.2c0,40.8,17.2,40.8,17.2,81.5c0,40.8-17.2,40.8-17.2,81.5"/>
			<path class="st1" d="M143,947.2c0-40.8,43.1-40.8,43.1-81.5c0-40.8-43.1-40.8-43.1-81.5"/>
			<path class="st1" d="M129.7,784.2c0,40.8,34.5,40.8,34.5,81.5c0,40.8-34.5,40.8-34.5,81.5"/>
			<path class="st1" d="M87,947.2V947c0-40.8-43.1-40.8-43.1-81.5c0-40.8,42.9-40.8,43.1-81.3"/>
			<path class="st1" d="M73.8,784.2c-0.2,40.5-51.6,40.6-51.6,81.3c0,40.7,51.7,40.8,51.7,81.5c0,0,0,0.1,0,0.2"/>
			<path class="st1" d="M109.2,947.2V947c0-40.8-17.2-40.8-17.2-81.5c0-40.8,17.2-40.8,17.2-81.3"/>
			<path class="st1" d="M100.2,784.2c-0.1,40.5-34.5,40.6-34.5,81.3c0,40.7,34.5,40.8,34.5,81.5c0,0,0,0.1,0,0.2"/>
			<path class="st1" d="M100.2,947.2c0,0,0-0.1,0-0.2c0-40.8-34.5-40.8-34.5-81.5c0-40.8,34.5-40.8,34.5-81.3"/>
			<path class="st1" d="M87,784.2c-0.1,40.5-43.1,40.6-43.1,81.3c0,40.7,43.1,40.8,43.1,81.5v0.2"/>
			<path class="st1" d="M73.8,947.2c0,0,0-0.1,0-0.2c0-40.8-51.7-40.8-51.7-81.5c0-40.8,51.5-40.8,51.7-81.3"/>
			<path class="st1" d="M60.8,784.2C60.6,824.7,0,824.8,0,865.5c0,40.7,60.8,40.8,60.8,81.5v0.2"/>
			<path class="st1" d="M156.2,947.2c0-40.8,51.7-40.8,51.7-81.5c0-40.8-51.7-40.8-51.7-81.5"/>
			<path class="st1" d="M143,784.2c0,40.8,43.1,40.8,43.1,81.5c0,40.8-43.1,40.8-43.1,81.5"/>
			<path class="st1" d="M169.1,947.2c0-40.8,60.9-40.8,60.9-81.5c0-40.8-60.9-40.8-60.9-81.5"/>
			<path class="st1" d="M156.2,784.2c0,40.8,51.7,40.8,51.7,81.5c0,40.8-51.7,40.8-51.7,81.5"/>
		</g>
	</g>
	<g id="Livello_2_5_" class="st0">
		<g id="Livello_1-2_4_">
			<path class="st1" d="M1112.8-120.6c0-40.8,17.2-40.8,17.2-81.5s-17.2-40.8-17.2-81.5"/>
			<path class="st1" d="M1101.2-283.7c0,40.5-17.2,40.6-17.2,81.3s17.2,40.8,17.2,81.5v0.2"/>
			<path class="st1" d="M1121.7-120.6c0-40.8,34.5-40.8,34.5-81.5s-34.5-40.8-34.5-81.5"/>
			<path class="st1" d="M1112.8-283.7c0,40.8,17.2,40.8,17.2,81.5s-17.2,40.8-17.2,81.5"/>
			<path class="st1" d="M1135-120.6c0-40.8,43.1-40.8,43.1-81.5s-43.1-40.8-43.1-81.5"/>
			<path class="st1" d="M1121.7-283.7c0,40.8,34.5,40.8,34.5,81.5s-34.5,40.8-34.5,81.5"/>
			<path class="st1" d="M1079-120.6v-0.2c0-40.8-43.1-40.8-43.1-81.5s42.9-40.8,43.1-81.3"/>
			<path class="st1" d="M1065.8-283.7c-0.2,40.5-51.6,40.6-51.6,81.3s51.7,40.8,51.7,81.5c0,0.1,0,0.1,0,0.2"/>
			<path class="st1" d="M1101.2-120.6v-0.2c0-40.8-17.2-40.8-17.2-81.5s17.2-40.8,17.2-81.3"/>
			<path class="st1" d="M1092.2-283.7c0,40.5-34.4,40.6-34.4,81.3s34.5,40.8,34.5,81.5c0,0.1,0,0.1,0,0.2"/>
			<path class="st1" d="M1092.2-120.6c0,0,0-0.1,0-0.2c0-40.8-34.5-40.8-34.5-81.5s34.5-40.8,34.5-81.3"/>
			<path class="st1" d="M1079-283.7c-0.1,40.5-43.1,40.6-43.1,81.3s43.1,40.8,43.1,81.5v0.2"/>
			<path class="st1" d="M1065.8-120.6c0,0,0-0.1,0-0.2c0-40.8-51.7-40.8-51.7-81.5s51.5-40.8,51.7-81.3"/>
			<path class="st1" d="M1052.8-283.7c-0.2,40.5-60.8,40.6-60.8,81.3s60.8,40.8,60.8,81.5v0.2"/>
			<path class="st1" d="M1148.2-120.6c0-40.8,51.7-40.8,51.7-81.5s-51.7-40.8-51.7-81.5"/>
			<path class="st1" d="M1135-283.7c0,40.8,43.1,40.8,43.1,81.5s-43.1,40.8-43.1,81.5"/>
			<path class="st1" d="M1161.1-120.6c0-40.8,60.9-40.8,60.9-81.5s-60.9-40.8-60.9-81.5"/>
			<path class="st1" d="M1148.2-283.7c0,40.8,51.7,40.8,51.7,81.5s-51.7,40.8-51.7,81.5"/>
			<path class="st1" d="M1112.8,205.4c0-40.8,17.2-40.8,17.2-81.5s-17.2-40.8-17.2-81.5"/>
			<path class="st1" d="M1101.2,42.4c0,40.5-17.2,40.6-17.2,81.3s17.2,40.8,17.2,81.5v0.2"/>
			<path class="st1" d="M1121.7,205.4c0-40.8,34.5-40.8,34.5-81.5s-34.5-40.8-34.5-81.5"/>
			<path class="st1" d="M1112.8,42.4c0,40.8,17.2,40.8,17.2,81.5s-17.2,40.8-17.2,81.5"/>
			<path class="st1" d="M1135,205.4c0-40.8,43.1-40.8,43.1-81.5S1135,83.2,1135,42.4"/>
			<path class="st1" d="M1121.7,42.4c0,40.8,34.5,40.8,34.5,81.5s-34.5,40.8-34.5,81.5"/>
			<path class="st1" d="M1079,205.4v-0.2c0-40.8-43.1-40.8-43.1-81.5s42.9-40.8,43.1-81.3"/>
			<path class="st1" d="M1065.8,42.4c-0.2,40.5-51.6,40.6-51.6,81.3s51.7,40.8,51.7,81.5c0,0,0,0.1,0,0.2"/>
			<path class="st1" d="M1101.2,205.4v-0.2c0-40.8-17.2-40.8-17.2-81.5s17.2-40.8,17.2-81.3"/>
			<path class="st1" d="M1092.2,42.4c-0.1,40.5-34.5,40.6-34.5,81.3s34.5,40.8,34.5,81.5c0,0,0,0.1,0,0.2"/>
			<path class="st1" d="M1092.2,205.4c0-0.1,0-0.1,0-0.2c0-40.8-34.5-40.8-34.5-81.5s34.5-40.8,34.5-81.3"/>
			<path class="st1" d="M1079,42.4c-0.1,40.5-43.1,40.6-43.1,81.3s43.1,40.8,43.1,81.5v0.2"/>
			<path class="st1" d="M1065.8,205.4c0-0.1,0-0.1,0-0.2c0-40.8-51.7-40.8-51.7-81.5s51.5-40.8,51.7-81.3"/>
			<path class="st1" d="M1052.8,42.4C1052.6,83,992,83,992,123.7s60.8,40.8,60.8,81.5v0.2"/>
			<path class="st1" d="M1148.2,205.4c0-40.8,51.7-40.8,51.7-81.5s-51.7-40.8-51.7-81.5"/>
			<path class="st1" d="M1135,42.4c0,40.8,43.1,40.8,43.1,81.5s-43.1,40.8-43.1,81.5"/>
			<path class="st1" d="M1161.1,205.4c0-40.8,60.9-40.8,60.9-81.5s-60.9-40.8-60.9-81.5"/>
			<path class="st1" d="M1148.2,42.4c0,40.8,51.7,40.8,51.7,81.5s-51.7,40.8-51.7,81.5"/>
			<path class="st1" d="M1112.8,531.5c0-40.8,17.2-40.8,17.2-81.5s-17.2-40.8-17.2-81.5"/>
			<path class="st1" d="M1101.2,368.5c0,40.5-17.2,40.6-17.2,81.3s17.2,40.8,17.2,81.5v0.2"/>
			<path class="st1" d="M1121.7,531.5c0-40.8,34.5-40.8,34.5-81.5s-34.5-40.8-34.5-81.5"/>
			<path class="st1" d="M1112.8,368.5c0,40.8,17.2,40.8,17.2,81.5s-17.2,40.8-17.2,81.5"/>
			<path class="st1" d="M1135,531.5c0-40.8,43.1-40.8,43.1-81.5s-43.1-40.8-43.1-81.5"/>
			<path class="st1" d="M1121.7,368.5c0,40.8,34.5,40.8,34.5,81.5s-34.5,40.8-34.5,81.5"/>
			<path class="st1" d="M1079,531.5v-0.2c0-40.8-43.1-40.8-43.1-81.5s42.9-40.8,43.1-81.3"/>
			<path class="st1" d="M1065.8,368.5c-0.2,40.5-51.6,40.6-51.6,81.3s51.7,40.8,51.7,81.5c0,0,0,0.1,0,0.2"/>
			<path class="st1" d="M1101.2,531.5v-0.2c0-40.8-17.2-40.8-17.2-81.5s17.2-40.8,17.2-81.3"/>
			<path class="st1" d="M1092.2,368.5c-0.1,40.5-34.5,40.6-34.5,81.3s34.5,40.8,34.5,81.5c0,0,0,0.1,0,0.2"/>
			<path class="st1" d="M1092.2,531.5c0,0,0-0.1,0-0.2c0-40.8-34.5-40.8-34.5-81.5s34.5-40.8,34.5-81.3"/>
			<path class="st1" d="M1079,368.5c-0.1,40.5-43.1,40.6-43.1,81.3s43.1,40.8,43.1,81.5v0.2"/>
			<path class="st1" d="M1065.8,531.5c0,0,0-0.1,0-0.2c0-40.8-51.7-40.8-51.7-81.5s51.5-40.8,51.7-81.3"/>
			<path class="st1" d="M1052.8,368.5c-0.2,40.5-60.8,40.6-60.8,81.3s60.8,40.8,60.8,81.5v0.2"/>
			<path class="st1" d="M1148.2,531.5c0-40.8,51.7-40.8,51.7-81.5s-51.7-40.8-51.7-81.5"/>
			<path class="st1" d="M1135,368.5c0,40.8,43.1,40.8,43.1,81.5s-43.1,40.8-43.1,81.5"/>
			<path class="st1" d="M1161.1,531.5c0-40.8,60.9-40.8,60.9-81.5s-60.9-40.8-60.9-81.5"/>
			<path class="st1" d="M1148.2,368.5c0,40.8,51.7,40.8,51.7,81.5s-51.7,40.8-51.7,81.5"/>
			<path class="st1" d="M1112.8,368.5c0-40.8,17.2-40.8,17.2-81.5s-17.2-40.8-17.2-81.5"/>
			<path class="st1" d="M1101.2,205.4c0,40.5-17.2,40.6-17.2,81.3s17.2,40.8,17.2,81.5v0.2"/>
			<path class="st1" d="M1121.7,368.5c0-40.8,34.5-40.8,34.5-81.5s-34.5-40.8-34.5-81.5"/>
			<path class="st1" d="M1112.8,205.4c0,40.8,17.2,40.8,17.2,81.5s-17.2,40.8-17.2,81.5"/>
			<path class="st1" d="M1135,368.5c0-40.8,43.1-40.8,43.1-81.5s-43.1-40.8-43.1-81.5"/>
			<path class="st1" d="M1121.7,205.4c0,40.8,34.5,40.8,34.5,81.5s-34.5,40.8-34.5,81.5"/>
			<path class="st1" d="M1079,368.5v-0.2c0-40.8-43.1-40.8-43.1-81.5s42.9-40.8,43.1-81.3"/>
			<path class="st1" d="M1065.8,205.4c-0.2,40.5-51.6,40.6-51.6,81.3s51.7,40.8,51.7,81.5c0,0,0,0.1,0,0.2"/>
			<path class="st1" d="M1101.2,368.5v-0.2c0-40.8-17.2-40.8-17.2-81.5s17.2-40.8,17.2-81.3"/>
			<path class="st1" d="M1092.2,205.4c-0.1,40.5-34.5,40.6-34.5,81.3s34.5,40.8,34.5,81.5c0,0,0,0.1,0,0.2"/>
			<path class="st1" d="M1092.2,368.5c0-0.1,0-0.1,0-0.2c0-40.8-34.5-40.8-34.5-81.5s34.5-40.8,34.5-81.3"/>
			<path class="st1" d="M1079,205.4c-0.1,40.5-43.1,40.6-43.1,81.3s43.1,40.8,43.1,81.5v0.2"/>
			<path class="st1" d="M1065.8,368.5c0-0.1,0-0.1,0-0.2c0-40.8-51.7-40.8-51.7-81.5s51.5-40.8,51.7-81.3"/>
			<path class="st1" d="M1052.8,205.4c-0.2,40.5-60.8,40.6-60.8,81.3s60.8,40.8,60.8,81.5v0.2"/>
			<path class="st1" d="M1148.2,368.5c0-40.8,51.7-40.8,51.7-81.5s-51.7-40.8-51.7-81.5"/>
			<path class="st1" d="M1135,205.4c0,40.8,43.1,40.8,43.1,81.5s-43.1,40.8-43.1,81.5"/>
			<path class="st1" d="M1161.1,368.5c0-40.8,60.9-40.8,60.9-81.5s-60.9-40.8-60.9-81.5"/>
			<path class="st1" d="M1148.2,205.4c0,40.8,51.7,40.8,51.7,81.5s-51.7,40.8-51.7,81.5"/>
			<path class="st1" d="M1112.8,42.4c0-40.8,17.2-40.8,17.2-81.5s-17.2-40.8-17.2-81.5"/>
			<path class="st1" d="M1101.2-120.6c0,40.5-17.2,40.6-17.2,81.3s17.2,40.8,17.2,81.5v0.2"/>
			<path class="st1" d="M1121.7,42.4c0-40.8,34.5-40.8,34.5-81.5s-34.5-40.8-34.5-81.5"/>
			<path class="st1" d="M1112.8-120.6c0,40.8,17.2,40.8,17.2,81.5s-17.2,40.8-17.2,81.5"/>
			<path class="st1" d="M1135,42.4c0-40.8,43.1-40.8,43.1-81.5s-43.1-40.8-43.1-81.5"/>
			<path class="st1" d="M1121.7-120.6c0,40.8,34.5,40.8,34.5,81.5s-34.5,40.8-34.5,81.5"/>
			<path class="st1" d="M1079,42.4v-0.2c0-40.8-43.1-40.8-43.1-81.5s42.9-40.8,43.1-81.3"/>
			<path class="st1" d="M1065.8-120.6c-0.2,40.5-51.6,40.6-51.6,81.3s51.7,40.8,51.7,81.5c0,0.1,0,0.1,0,0.2"/>
			<path class="st1" d="M1101.2,42.4v-0.2c0-40.8-17.2-40.8-17.2-81.5s17.2-40.8,17.2-81.3"/>
			<path class="st1" d="M1092.2-120.6c-0.1,40.5-34.5,40.6-34.5,81.3s34.5,40.8,34.5,81.5c0,0.1,0,0.1,0,0.2"/>
			<path class="st1" d="M1092.2,42.4c0-0.1,0-0.1,0-0.2c0-40.8-34.5-40.8-34.5-81.5s34.5-40.8,34.5-81.3"/>
			<path class="st1" d="M1079-120.6c-0.1,40.5-43.1,40.6-43.1,81.3S1079,1.5,1079,42.2v0.2"/>
			<path class="st1" d="M1065.8,42.4c0-0.1,0-0.1,0-0.2c0-40.8-51.7-40.8-51.7-81.5s51.5-40.8,51.7-81.3"/>
			<path class="st1" d="M1052.8-120.6C1052.6-80.1,992-80,992-39.3s60.8,40.8,60.8,81.5v0.2"/>
			<path class="st1" d="M1148.2,42.4c0-40.8,51.7-40.8,51.7-81.5s-51.7-40.8-51.7-81.5"/>
			<path class="st1" d="M1135-120.6c0,40.8,43.1,40.8,43.1,81.5S1135,1.7,1135,42.4"/>
			<path class="st1" d="M1161.1,42.4c0-40.8,60.9-40.8,60.9-81.5s-60.9-40.8-60.9-81.5"/>
			<path class="st1" d="M1148.2-120.6c0,40.8,51.7,40.8,51.7,81.5s-51.7,40.8-51.7,81.5"/>
			<path class="st1" d="M1112.8,694.6c0-40.8,17.2-40.8,17.2-81.5c0-40.8-17.2-40.8-17.2-81.5"/>
			<path class="st1" d="M1101.2,531.5c0,40.5-17.2,40.6-17.2,81.3c0,40.7,17.2,40.8,17.2,81.5v0.2"/>
			<path class="st1" d="M1121.7,694.6c0-40.8,34.5-40.8,34.5-81.5c0-40.8-34.5-40.8-34.5-81.5"/>
			<path class="st1" d="M1112.8,531.5c0,40.8,17.2,40.8,17.2,81.5c0,40.8-17.2,40.8-17.2,81.5"/>
			<path class="st1" d="M1135,694.6c0-40.8,43.1-40.8,43.1-81.5c0-40.8-43.1-40.8-43.1-81.5"/>
			<path class="st1" d="M1121.7,531.5c0,40.8,34.5,40.8,34.5,81.5c0,40.8-34.5,40.8-34.5,81.5"/>
			<path class="st1" d="M1079,694.6v-0.2c0-40.8-43.1-40.8-43.1-81.5s42.9-40.8,43.1-81.3"/>
			<path class="st1" d="M1065.8,531.5c-0.2,40.5-51.6,40.6-51.6,81.3c0,40.7,51.7,40.8,51.7,81.5c0,0,0,0.1,0,0.2"/>
			<path class="st1" d="M1101.2,694.6v-0.2c0-40.8-17.2-40.8-17.2-81.5s17.2-40.8,17.2-81.3"/>
			<path class="st1" d="M1092.2,531.5c-0.1,40.5-34.5,40.6-34.5,81.3c0,40.7,34.5,40.8,34.5,81.5c0,0,0,0.1,0,0.2"/>
			<path class="st1" d="M1092.2,694.6c0,0,0-0.1,0-0.2c0-40.8-34.5-40.8-34.5-81.5s34.5-40.8,34.5-81.3"/>
			<path class="st1" d="M1079,531.5c-0.1,40.5-43.1,40.6-43.1,81.3c0,40.7,43.1,40.8,43.1,81.5v0.2"/>
			<path class="st1" d="M1065.8,694.6c0,0,0-0.1,0-0.2c0-40.8-51.7-40.8-51.7-81.5s51.5-40.8,51.7-81.3"/>
			<path class="st1" d="M1052.8,531.5c-0.2,40.5-60.8,40.6-60.8,81.3c0,40.7,60.8,40.8,60.8,81.5v0.2"/>
			<path class="st1" d="M1148.2,694.6c0-40.8,51.7-40.8,51.7-81.5c0-40.8-51.7-40.8-51.7-81.5"/>
			<path class="st1" d="M1135,531.5c0,40.8,43.1,40.8,43.1,81.5c0,40.8-43.1,40.8-43.1,81.5"/>
			<path class="st1" d="M1161.1,694.6c0-40.8,60.9-40.8,60.9-81.5c0-40.8-60.9-40.8-60.9-81.5"/>
			<path class="st1" d="M1148.2,531.5c0,40.8,51.7,40.8,51.7,81.5c0,40.8-51.7,40.8-51.7,81.5"/>
			<path class="st1" d="M1112.8,1020.6c0-40.8,17.2-40.8,17.2-81.5c0-40.8-17.2-40.8-17.2-81.5"/>
			<path class="st1" d="M1101.2,857.6c0,40.5-17.2,40.6-17.2,81.3c0,40.7,17.2,40.8,17.2,81.5v0.2"/>
			<path class="st1" d="M1121.7,1020.6c0-40.8,34.5-40.8,34.5-81.5c0-40.8-34.5-40.8-34.5-81.5"/>
			<path class="st1" d="M1112.8,857.6c0,40.8,17.2,40.8,17.2,81.5c0,40.8-17.2,40.8-17.2,81.5"/>
			<path class="st1" d="M1135,1020.6c0-40.8,43.1-40.8,43.1-81.5c0-40.8-43.1-40.8-43.1-81.5"/>
			<path class="st1" d="M1121.7,857.6c0,40.8,34.5,40.8,34.5,81.5c0,40.8-34.5,40.8-34.5,81.5"/>
			<path class="st1" d="M1079,1020.6v-0.2c0-40.8-43.1-40.8-43.1-81.5c0-40.8,42.9-40.8,43.1-81.3"/>
			<path class="st1" d="M1065.8,857.6c-0.2,40.5-51.6,40.6-51.6,81.3c0,40.7,51.7,40.8,51.7,81.5c0,0,0,0.1,0,0.2"/>
			<path class="st1" d="M1101.2,1020.6v-0.2c0-40.8-17.2-40.8-17.2-81.5c0-40.8,17.2-40.8,17.2-81.3"/>
			<path class="st1" d="M1092.2,857.6c-0.1,40.5-34.5,40.6-34.5,81.3c0,40.7,34.5,40.8,34.5,81.5c0,0,0,0.1,0,0.2"/>
			<path class="st1" d="M1092.2,1020.6c0,0,0-0.1,0-0.2c0-40.8-34.5-40.8-34.5-81.5c0-40.8,34.5-40.8,34.5-81.3"/>
			<path class="st1" d="M1079,857.6c-0.1,40.5-43.1,40.6-43.1,81.3c0,40.7,43.1,40.8,43.1,81.5v0.2"/>
			<path class="st1" d="M1065.8,1020.6c0,0,0-0.1,0-0.2c0-40.8-51.7-40.8-51.7-81.5c0-40.8,51.5-40.8,51.7-81.3"/>
			<path class="st1" d="M1052.8,857.6c-0.2,40.5-60.8,40.6-60.8,81.3c0,40.7,60.8,40.8,60.8,81.5v0.2"/>
			<path class="st1" d="M1148.2,1020.6c0-40.8,51.7-40.8,51.7-81.5c0-40.8-51.7-40.8-51.7-81.5"/>
			<path class="st1" d="M1135,857.6c0,40.8,43.1,40.8,43.1,81.5c0,40.8-43.1,40.8-43.1,81.5"/>
			<path class="st1" d="M1161.1,1020.6c0-40.8,60.9-40.8,60.9-81.5c0-40.8-60.9-40.8-60.9-81.5"/>
			<path class="st1" d="M1148.2,857.6c0,40.8,51.7,40.8,51.7,81.5c0,40.8-51.7,40.8-51.7,81.5"/>
			<path class="st1" d="M1112.8,1183.7c0-40.8,17.2-40.8,17.2-81.5s-17.2-40.8-17.2-81.5"/>
			<path class="st1" d="M1101.2,1020.6c0,40.5-17.2,40.6-17.2,81.3s17.2,40.8,17.2,81.5v0.2"/>
			<path class="st1" d="M1121.7,1183.7c0-40.8,34.5-40.8,34.5-81.5s-34.5-40.8-34.5-81.5"/>
			<path class="st1" d="M1112.8,1020.6c0,40.8,17.2,40.8,17.2,81.5s-17.2,40.8-17.2,81.5"/>
			<path class="st1" d="M1135,1183.7c0-40.8,43.1-40.8,43.1-81.5s-43.1-40.8-43.1-81.5"/>
			<path class="st1" d="M1121.7,1020.6c0,40.8,34.5,40.8,34.5,81.5s-34.5,40.8-34.5,81.5"/>
			<path class="st1" d="M1079,1183.7v-0.2c0-40.8-43.1-40.8-43.1-81.5s42.9-40.8,43.1-81.3"/>
			<path class="st1" d="M1065.8,1020.6c-0.2,40.5-51.6,40.6-51.6,81.3s51.7,40.8,51.7,81.5c0,0.1,0,0.1,0,0.2"/>
			<path class="st1" d="M1101.2,1183.7v-0.2c0-40.8-17.2-40.8-17.2-81.5s17.2-40.8,17.2-81.3"/>
			<path class="st1" d="M1092.2,1020.6c-0.1,40.5-34.5,40.6-34.5,81.3s34.5,40.8,34.5,81.5c0,0.1,0,0.1,0,0.2"/>
			<path class="st1" d="M1092.2,1183.7c0,0,0-0.1,0-0.2c0-40.8-34.5-40.8-34.5-81.5s34.5-40.8,34.5-81.3"/>
			<path class="st1" d="M1079,1020.6c-0.1,40.5-43.1,40.6-43.1,81.3s43.1,40.8,43.1,81.5v0.2"/>
			<path class="st1" d="M1065.8,1183.7c0,0,0-0.1,0-0.2c0-40.8-51.7-40.8-51.7-81.5s51.5-40.8,51.7-81.3"/>
			<path class="st1" d="M1052.8,1020.6c-0.2,40.5-60.8,40.6-60.8,81.3s60.8,40.8,60.8,81.5v0.2"/>
			<path class="st1" d="M1148.2,1183.7c0-40.8,51.7-40.8,51.7-81.5s-51.7-40.8-51.7-81.5"/>
			<path class="st1" d="M1135,1020.6c0,40.8,43.1,40.8,43.1,81.5s-43.1,40.8-43.1,81.5"/>
			<path class="st1" d="M1161.1,1183.7c0-40.8,60.9-40.8,60.9-81.5s-60.9-40.8-60.9-81.5"/>
			<path class="st1" d="M1148.2,1020.6c0,40.8,51.7,40.8,51.7,81.5s-51.7,40.8-51.7,81.5"/>
			<path class="st1" d="M1112.8,857.6c0-40.8,17.2-40.8,17.2-81.5c0-40.8-17.2-40.8-17.2-81.5"/>
			<path class="st1" d="M1101.2,694.6c0,40.5-17.2,40.6-17.2,81.3c0,40.7,17.2,40.8,17.2,81.5v0.2"/>
			<path class="st1" d="M1121.7,857.6c0-40.8,34.5-40.8,34.5-81.5c0-40.8-34.5-40.8-34.5-81.5"/>
			<path class="st1" d="M1112.8,694.6c0,40.8,17.2,40.8,17.2,81.5c0,40.8-17.2,40.8-17.2,81.5"/>
			<path class="st1" d="M1135,857.6c0-40.8,43.1-40.8,43.1-81.5c0-40.8-43.1-40.8-43.1-81.5"/>
			<path class="st1" d="M1121.7,694.6c0,40.8,34.5,40.8,34.5,81.5c0,40.8-34.5,40.8-34.5,81.5"/>
			<path class="st1" d="M1079,857.6v-0.2c0-40.8-43.1-40.8-43.1-81.5c0-40.8,42.9-40.8,43.1-81.3"/>
			<path class="st1" d="M1065.8,694.6c-0.2,40.5-51.6,40.6-51.6,81.3c0,40.7,51.7,40.8,51.7,81.5c0,0,0,0.1,0,0.2"/>
			<path class="st1" d="M1101.2,857.6v-0.2c0-40.8-17.2-40.8-17.2-81.5c0-40.8,17.2-40.8,17.2-81.3"/>
			<path class="st1" d="M1092.2,694.6c-0.1,40.5-34.5,40.6-34.5,81.3c0,40.7,34.5,40.8,34.5,81.5c0,0,0,0.1,0,0.2"/>
			<path class="st1" d="M1092.2,857.6c0,0,0-0.1,0-0.2c0-40.8-34.5-40.8-34.5-81.5c0-40.8,34.5-40.8,34.5-81.3"/>
			<path class="st1" d="M1079,694.6c-0.1,40.5-43.1,40.6-43.1,81.3c0,40.7,43.1,40.8,43.1,81.5v0.2"/>
			<path class="st1" d="M1065.8,857.6c0,0,0-0.1,0-0.2c0-40.8-51.7-40.8-51.7-81.5c0-40.8,51.5-40.8,51.7-81.3"/>
			<path class="st1" d="M1052.8,694.6c-0.2,40.5-60.8,40.6-60.8,81.3c0,40.7,60.8,40.8,60.8,81.5v0.2"/>
			<path class="st1" d="M1148.2,857.6c0-40.8,51.7-40.8,51.7-81.5c0-40.8-51.7-40.8-51.7-81.5"/>
			<path class="st1" d="M1135,694.6c0,40.8,43.1,40.8,43.1,81.5c0,40.8-43.1,40.8-43.1,81.5"/>
			<path class="st1" d="M1161.1,857.6c0-40.8,60.9-40.8,60.9-81.5c0-40.8-60.9-40.8-60.9-81.5"/>
			<path class="st1" d="M1148.2,694.6c0,40.8,51.7,40.8,51.7,81.5c0,40.8-51.7,40.8-51.7,81.5"/>
		</g>
	</g>
	<g id="Livello_2_2_" class="st0">
		<g id="Livello_1-2_1_">
			<path class="st1" d="M645-203c-12.2,54.5-124.3,31.6-130.9,85.3c-6.2,50.1,113.7,35.2,110.4,85.3c-3.4,52-120.4,33.1-121.2,85.3
				c-0.7,51.7,117.3,33.7,118.6,85.3c1.3,50.6-118.5,34-114.5,85.3c4.2,53.6,119.5,32.8,123.8,85.3c4.1,50.4-115.6,35-110.7,85.3
				c5.1,52.7,120.6,30.8,126.1,85.3"/>
			<path class="st1" d="M523.9-203c-9,50.5,112.3,35.8,105.2,85.3c-7.7,53.5-122.3,32.5-125.7,85.3C500.1,18.5,620,1.3,618.2,53
				c-1.8,51.9-119.8,33.4-117.5,85.3c2.4,53.2,118.6,33.2,121.5,85.3c2.9,50.6-116.4,34.7-112.2,85.3
				c4.4,52.9,120.3,32.5,125.3,85.3c4.8,50.2-113.5,33.2-110,85.3"/>
			<path class="st1" d="M571.4-116.5c-19.4,6.6-58.8,16.6-61.8,42.1c-3,24.8,38.1,36,54.3,42.1c19.3-6.6,58.4-17.3,60.6-42.1
				C626.7-98.8,589.4-109.5,571.4-116.5z"/>
			<path class="st1" d="M563.9-32.3c-19.2,6.6-61.7,17.6-62.7,43.2c-1,25.3,41.2,36.7,59.5,43.2c19.2-6.7,60.6-17.7,61.6-43.2
				C623.4-14.3,582.2-25.8,563.9-32.3z"/>
			<path class="st1" d="M560.7,54.1c-18.2,6.4-57.8,17.5-57.6,42.1c0.2,24.6,39.8,35.7,58.2,42.1c17.1-6.4,57.7-17.3,56.8-42.1
				C617.2,70.8,579.8,61.2,560.7,54.1z"/>
			<path class="st1" d="M584.4-202.9c-20.9,7.1-62.8,16.5-67.8,43.2c-4.7,25.3,38.9,37.1,54.8,43.2c20.7-7,62.3-17.4,66.4-43.2
				C641.7-184.7,602.2-196,584.4-202.9z"/>
			<path class="st1" d="M570.7,309c-17.7,6.4-59.4,18.1-57,43.2c2.4,25.8,44.5,36.5,64.4,43.2c17.7-6.4,59.1-18.1,56.7-43.2
				C632.4,326.5,590.6,315.8,570.7,309z"/>
			<path class="st1" d="M578.1,395.4c-17.9,6.9-55.9,17.6-53.5,42.1c2.4,24.8,42,35.5,61.4,42.1c16.1-6.2,56.6-17.4,53.5-42.1
				C636.3,412.1,597.5,402,578.1,395.4z"/>
			<path class="st1" d="M565,224.8c-18.2,6.9-56.4,17.5-54.8,42.1s41.5,35.6,60.6,42.1c16.4-6.3,56.8-17.3,54.4-42.1
				C622.6,241.5,584,231.4,565,224.8z"/>
			<path class="st1" d="M561.3,138.3c-18.3,6.5-60.3,17.9-59.1,43.2c1.2,25.6,43.4,36.6,62.7,43.2c18.2-6.5,59.6-18,58.4-43.2
				C622.2,156,580.6,145,561.3,138.3z"/>
			<path class="st1" d="M646.6,479.6c3.4,52.2-114.9,35.1-110,85.3c5.1,52.8,121,32.5,125.3,85.3c4.2,50.4-116.2,34.1-112.2,85.4
				c4.1,53.1,120.3,33.1,121.5,85.3c1.3,51.4-117.7,33.1-117.5,85.3c0.2,51.3,119.2,34.1,114.9,85.3
				c-4.5,53.8-119.5,31.3-125.7,85.3c-5.7,49.9,115.2,35.4,105.2,85.3"/>
			<path class="st1" d="M525.4,479.7c7.5,54.7,121,32.3,126.1,85.3c4.8,50.3-114.9,35-110.7,85.3c4.4,52.6,120.8,32.7,123.8,85.3
				c3,50.8-116.8,33.6-114.5,85.3c2.4,52.6,119.4,33.5,118.5,85.3c-0.8,52.2-117.9,33.3-121.2,85.3c-3.2,50.1,116.6,35.2,110.4,85.3
				c-6.7,53.7-118.7,30.8-130.9,85.3"/>
			<path class="st1" d="M594.1,566.2c-18,6.9-55.8,17.6-53.7,42.1c2.1,24.8,41.6,35.5,60.9,42.1c16.2-6.2,56.9-17.3,54-42.1
				C652.4,582.8,613.4,572.7,594.1,566.2z"/>
			<path class="st1" d="M601.3,650.4c-17.9,6.4-59.3,18.1-57.4,43.2c1.9,25.7,43.6,36.5,63.3,43.2c17.9-6.4,59.8-18.1,57.9-43.2
				C663.2,667.9,621,657.1,601.3,650.4z"/>
			<path class="st1" d="M607.2,736.8c-18.5,7-56.3,17.4-55.4,42.1c0.9,24.7,40.2,35.6,58.9,42.1c16.7-6.3,57.7-17.1,56-42.1
				C665,753.6,625.9,743.3,607.2,736.8z"/>
			<path class="st1" d="M586,479.7c-17.6,6.4-59,18.2-56.5,43.2c2.7,25.8,44.6,36.4,64.6,43.2c17.6-6.4,59.1-18.2,56.6-43.2
				C648,497.1,606,486.5,586,479.7z"/>
			<path class="st1" d="M608.1,991.6c-19.9,6.8-61.3,17.5-63.8,43.2c-2.4,25.1,38.4,36.8,56.1,43.2c20-6.7,62.6-17.4,65.1-43.2
				C667.8,1009.8,625.8,998,608.1,991.6z"/>
			<path class="st1" d="M600.3,1078.1c-20.1,6.8-58.4,16.8-63.2,42.1c-4.6,24.2,34.9,35.9,50.4,42.1c20.2-6.7,60.6-17,64.5-42.1
				C655.8,1095.9,617.7,1084.8,600.3,1078.1z"/>
			<path class="st1" d="M611.2,907.4c-18.7,6.5-57,16.9-58.5,42.1c-1.5,24.9,38.6,35.8,55.4,42.1c18.7-6.4,58.8-17.5,59.5-42.1
				C668.4,924.9,629.8,914.4,611.2,907.4z"/>
			<path class="st1" d="M610.7,821c-18.6,6.6-60,17.8-59.9,43.2c0.2,25.4,41.6,36.6,60.4,43.2c18.7-6.5,60.9-17.8,60.7-43.2
				S629.5,827.6,610.7,821z"/>
			<path class="st1" d="M646.6-211.2c-84.5,459.7,84.6,922.1,0,1381.8"/>
			<path class="st1" d="M661.6-211.2c-84.6,459.7,84.6,922.1,0,1381.8"/>
			<path class="st1" d="M510.4-211.2c-84.6,459.7,84.6,922.1,0,1381.8"/>
			<path class="st1" d="M525.4-211.2c-84.6,459.7,84.6,922.1,0,1381.8"/>
		</g>
	</g>
	<g id="Livello_2_3_" class="st0">
		<g id="Livello_1-2_2_">
			<path class="st1" d="M448-595.6c0,127.5-87.7,127.5-87.7,255S448-213.1,448-85.6s-87.7,127.5-87.7,255s87.7,127.5,87.7,255
				s-87.7,127.5-87.7,255S448,807,448,934.5s-87.7,127.5-87.7,255s87.7,127.5,87.7,255"/>
			<path class="st1" d="M358-595.6c0,127.5,87.7,127.5,87.7,255S358-213.1,358-85.5s87.7,127.5,87.7,255S358,297,358,424.5
				s87.7,127.5,87.7,255S358,807,358,934.5s87.7,127.5,87.7,255S358,1317,358,1444.5"/>
			<path class="st1" d="M403-337c-21.5,31.3-42.7,63.2-42.7,125.8s21.2,94.4,42.7,125.8c21.5-31.3,42.7-63.2,42.7-125.8
				S424.5-305.7,403-337z"/>
			<path class="st1" d="M403-85.4C380.7-53,358-21.2,358,43.8s22.7,96.7,45,129.1c22.3-32.4,45-64.3,45-129.2S425.3-53,403-85.4z"/>
			<path class="st1" d="M403,172.9c-21.5,31.3-42.7,63.2-42.7,125.8s21.2,94.4,42.7,125.8c21.5-31.3,42.7-63.2,42.7-125.8
				S424.5,204.2,403,172.9z"/>
			<path class="st1" d="M403-595.4c-22.3,32.5-45,64.3-45,129.2s22.7,96.7,45,129.1c22.3-32.4,45-64.2,45-129.2
				S425.3-562.9,403-595.4z"/>
			<path class="st1" d="M403,934.5c-22.3,32.4-45,64.2-45,129.2s22.7,96.7,45,129.2c22.3-32.5,45-64.3,45-129.2
				S425.3,966.9,403,934.5z"/>
			<path class="st1" d="M403,1192.9c-21.5,31.3-42.7,63.2-42.7,125.8s21.2,94.4,42.7,125.8c21.5-31.3,42.7-63.2,42.7-125.8
				S424.5,1224.2,403,1192.9z"/>
			<path class="st1" d="M403,682.9c-21.5,31.3-42.7,63.2-42.7,125.8s21.2,94.4,42.7,125.8c21.5-31.3,42.7-63.2,42.7-125.8
				S424.5,714.2,403,682.9z"/>
			<path class="st1" d="M403,424.5c-22.3,32.5-45,64.2-45,129.2s22.7,96.7,45,129.2c22.3-32.5,45-64.2,45-129.2
				S425.3,456.9,403,424.5z"/>
			<path class="st1" d="M358-595.6c0,127.5-87.7,127.5-87.7,255S358-213.1,358-85.6s-87.7,127.5-87.7,255s87.7,127.5,87.7,255
				s-87.7,127.5-87.7,255S358,807,358,934.5s-87.7,127.5-87.7,255s87.7,127.5,87.7,255"/>
			<path class="st1" d="M268-595.6c0,127.5,87.7,127.5,87.7,255S268-213.1,268-85.6s87.7,127.5,87.7,255S268,296.8,268,424.3
				s87.7,127.5,87.7,255S268,806.8,268,934.3s87.7,127.5,87.7,255s-87.7,127.5-87.7,255"/>
			<path class="st1" d="M313-337c-21.5,31.3-42.7,63.2-42.7,125.8s21.2,94.4,42.7,125.8c21.5-31.3,42.7-63.2,42.7-125.8
				S334.5-305.7,313-337z"/>
			<path class="st1" d="M313-85.4C290.7-53,268-21.1,268,43.8s22.7,96.7,45,129.1c22.3-32.5,45-64.3,45-129.2S335.3-53,313-85.4z"/>
			<path class="st1" d="M313,172.9c-21.5,31.3-42.7,63.2-42.7,125.8s21.2,94.4,42.7,125.8c21.5-31.3,42.7-63.2,42.7-125.8
				S334.5,204.2,313,172.9z"/>
			<path class="st1" d="M313-595.4c-22.3,32.5-45,64.3-45,129.2s22.7,96.7,45,129.1c22.3-32.4,45-64.2,45-129.2
				S335.3-562.9,313-595.4z"/>
			<path class="st1" d="M313,934.5c-22.3,32.4-45,64.3-45,129.2s22.7,96.7,45,129.2c22.3-32.5,45-64.3,45-129.2
				S335.3,966.9,313,934.5z"/>
			<path class="st1" d="M313,1192.9c-21.5,31.3-42.7,63.2-42.7,125.8s21.2,94.4,42.7,125.8c21.5-31.3,42.7-63.2,42.7-125.8
				S334.5,1224.2,313,1192.9z"/>
			<path class="st1" d="M313,682.9c-21.5,31.3-42.7,63.2-42.7,125.8s21.2,94.4,42.7,125.8c21.5-31.3,42.7-63.2,42.7-125.8
				S334.5,714.2,313,682.9z"/>
			<path class="st1" d="M313,424.5c-22.3,32.5-45,64.3-45,129.2s22.7,96.7,45,129.2c22.3-32.5,45-64.2,45-129.2
				S335.3,456.9,313,424.5z"/>
		</g>
	</g>
	<g id="Livello_2_6_" class="st0">
		<g id="Livello_1-2_5_">
			<path class="st1" d="M1440-595.7c0,127.5-87.7,127.5-87.7,255s87.7,127.5,87.7,255s-87.7,127.5-87.7,255s87.7,127.5,87.7,255
				s-87.7,127.5-87.7,255s87.7,127.5,87.7,255s-87.7,127.5-87.7,255s87.7,127.5,87.7,255"/>
			<path class="st1" d="M1350-595.6c0,127.5,87.7,127.5,87.7,255s-87.7,127.5-87.7,255s87.7,127.5,87.7,255s-87.7,127.5-87.7,255
				s87.7,127.5,87.7,255s-87.7,127.5-87.7,255s87.7,127.5,87.7,255s-87.7,127.5-87.7,255"/>
			<path class="st1" d="M1395-337.1c-21.5,31.3-42.7,63.2-42.7,125.8s21.2,94.4,42.7,125.8c21.5-31.3,42.7-63.2,42.7-125.8
				S1416.5-305.8,1395-337.1z"/>
			<path class="st1" d="M1395-85.5c-22.3,32.4-45,64.2-45,129.2s22.7,96.7,45,129.1c22.3-32.4,45-64.3,45-129.2
				S1417.3-53.1,1395-85.5z"/>
			<path class="st1" d="M1395,172.8c-21.5,31.3-42.7,63.2-42.7,125.8s21.2,94.4,42.7,125.8c21.5-31.3,42.7-63.2,42.7-125.8
				S1416.5,204.2,1395,172.8z"/>
			<path class="st1" d="M1395-595.4c-22.3,32.5-45,64.3-45,129.2s22.7,96.7,45,129.1c22.3-32.4,45-64.2,45-129.2
				S1417.3-563,1395-595.4z"/>
			<path class="st1" d="M1395,934.4c-22.3,32.4-45,64.2-45,129.2s22.7,96.7,45,129.2c22.3-32.5,45-64.3,45-129.2
				S1417.3,966.9,1395,934.4z"/>
			<path class="st1" d="M1395,1192.8c-21.5,31.3-42.7,63.2-42.7,125.8s21.2,94.4,42.7,125.8c21.5-31.3,42.7-63.2,42.7-125.8
				C1437.7,1255.9,1416.5,1224.1,1395,1192.8z"/>
			<path class="st1" d="M1395,682.8c-21.5,31.3-42.7,63.2-42.7,125.8s21.2,94.4,42.7,125.8c21.5-31.3,42.7-63.2,42.7-125.8
				S1416.5,714.1,1395,682.8z"/>
			<path class="st1" d="M1395,424.4c-22.3,32.5-45,64.2-45,129.2c0,65,22.7,96.7,45,129.2c22.3-32.5,45-64.2,45-129.2
				S1417.3,456.9,1395,424.4z"/>
			<path class="st1" d="M1350-595.7c0,127.5-87.7,127.5-87.7,255s87.7,127.5,87.7,255s-87.7,127.5-87.7,255s87.7,127.5,87.7,255
				s-87.7,127.5-87.7,255s87.7,127.5,87.7,255s-87.7,127.5-87.7,255s87.7,127.5,87.7,255"/>
			<path class="st1" d="M1260-595.6c0,127.5,87.7,127.5,87.7,255s-87.7,127.5-87.7,255s87.7,127.5,87.7,255S1260,296.8,1260,424.3
				s87.7,127.5,87.7,255s-87.7,127.5-87.7,255s87.7,127.5,87.7,255s-87.7,127.5-87.7,255"/>
			<path class="st1" d="M1305-337.1c-21.5,31.3-42.7,63.2-42.7,125.8s21.2,94.4,42.7,125.8c21.5-31.3,42.7-63.2,42.7-125.8
				S1326.5-305.8,1305-337.1z"/>
			<path class="st1" d="M1305-85.5c-22.3,32.4-45,64.3-45,129.2s22.7,96.7,45,129.1c22.3-32.5,45-64.3,45-129.2
				S1327.3-53.1,1305-85.5z"/>
			<path class="st1" d="M1305,172.8c-21.5,31.3-42.7,63.2-42.7,125.8s21.2,94.4,42.7,125.8c21.5-31.3,42.7-63.2,42.7-125.8
				S1326.5,204.2,1305,172.8z"/>
			<path class="st1" d="M1305-595.4c-22.3,32.5-45,64.3-45,129.2s22.7,96.7,45,129.1c22.3-32.4,45-64.2,45-129.2
				S1327.3-563,1305-595.4z"/>
			<path class="st1" d="M1305,934.4c-22.3,32.4-45,64.3-45,129.2s22.7,96.7,45,129.2c22.3-32.5,45-64.3,45-129.2
				S1327.3,966.9,1305,934.4z"/>
			<path class="st1" d="M1305,1192.8c-21.5,31.3-42.7,63.2-42.7,125.8s21.2,94.4,42.7,125.8c21.5-31.3,42.7-63.2,42.7-125.8
				C1347.7,1255.9,1326.5,1224.1,1305,1192.8z"/>
			<path class="st1" d="M1305,682.8c-21.5,31.3-42.7,63.2-42.7,125.8s21.2,94.4,42.7,125.8c21.5-31.3,42.7-63.2,42.7-125.8
				S1326.5,714.1,1305,682.8z"/>
			<path class="st1" d="M1305,424.4c-22.3,32.5-45,64.3-45,129.2s22.7,96.7,45,129.2c22.3-32.5,45-64.2,45-129.2
				S1327.3,456.9,1305,424.4z"/>
		</g>
	</g>
	<g id="Livello_2_4_" class="st0">
		<g id="Livello_1-2_3_">
			<path class="st1" d="M954-124.4c0,47.6-180.5,47.6-180.5,95.3S954,18.5,954,66.2s-180.5,47.7-180.5,95.3S954,209.1,954,256.8
				s-180.5,47.7-180.5,95.3S954,399.7,954,447.4c0,47.7-180.5,47.6-180.5,95.3S954,590.3,954,638s-180.5,47.7-180.5,95.3
				S954,780.9,954,828.6s-180.5,47.7-180.5,95.3"/>
			<path class="st1" d="M949-103.4c0,47.7-180.5,47.7-180.5,95.3S949,39.5,949,87.2s-180.5,47.6-180.5,95.3S949,230.1,949,277.8
				s-180.5,47.6-180.5,95.3S949,420.7,949,468.4S768.5,516,768.5,563.7c0,47.7,180.5,47.7,180.5,95.3s-180.5,47.7-180.5,95.3
				S949,802,949,849.6s-180.5,47.7-180.5,95.3"/>
			<path class="st1" d="M949-145.4c0,47.7-180.5,47.7-180.5,95.3S949-2.5,949,45.2s-180.5,47.7-180.5,95.3S949,188.1,949,235.8
				s-180.5,47.7-180.5,95.3S949,378.7,949,426.4S768.5,474,768.5,521.7c0,47.7,180.5,47.6,180.5,95.3s-180.5,47.7-180.5,95.3
				S949,759.9,949,807.6s-180.5,47.7-180.5,95.3"/>
			<path class="st1" d="M938.3-166.4c0,47.7-180.5,47.7-180.5,95.3s180.5,47.7,180.5,95.3s-180.5,47.7-180.5,95.3
				s180.5,47.6,180.5,95.3S757.8,262.4,757.8,310s180.5,47.7,180.5,95.3c0,47.7-180.5,47.7-180.5,95.3s180.5,47.7,180.5,95.3
				s-180.5,47.7-180.5,95.3c0,47.7,180.5,47.7,180.5,95.3c0,47.7-180.5,47.7-180.5,95.3"/>
			<path class="st1" d="M928.6-61.4c0,47.7-180.5,47.7-180.5,95.3s180.5,47.7,180.5,95.3s-180.5,47.7-180.5,95.3
				s180.5,47.6,180.5,95.3s-180.5,47.6-180.5,95.3s180.5,47.6,180.5,95.3S748.1,558,748.1,605.7c0,47.7,180.5,47.7,180.5,95.3
				c0,47.7-180.5,47.7-180.5,95.3s180.5,47.7,180.5,95.3s-180.5,47.7-180.5,95.3"/>
			<path class="st1" d="M913.4,1.6c0,47.6-180.5,47.6-180.5,95.3s180.5,47.7,180.5,95.3s-180.5,47.7-180.5,95.3
				s180.5,47.6,180.5,95.3s-180.5,47.8-180.5,95.3s180.5,47.7,180.5,95.3S732.9,621,732.9,668.7s180.5,47.7,180.5,95.3
				c0,47.7-180.5,47.7-180.5,95.3s180.5,47.7,180.5,95.3c0,47.7-180.5,47.7-180.5,95.3"/>
			<path class="st1" d="M913.4-40.4c0,47.7-180.5,47.7-180.5,95.3s180.5,47.7,180.5,95.3s-180.5,47.7-180.5,95.3
				s180.5,47.6,180.5,95.3s-180.5,47.6-180.5,95.3s180.5,47.7,180.5,95.3S732.9,579,732.9,626.7c0,47.7,180.5,47.7,180.5,95.3
				c0,47.7-180.5,47.7-180.5,95.3s180.5,47.7,180.5,95.3s-180.5,47.7-180.5,95.3"/>
			<path class="st1" d="M904.5-19.4c0,47.6-180.5,47.6-180.5,95.3s180.5,47.7,180.5,95.3S724,218.8,724,266.5s180.5,47.6,180.5,95.3
				S724,409.4,724,457.1s180.5,47.7,180.5,95.3S724,600,724,647.7s180.5,47.7,180.5,95.3c0,47.7-180.5,47.7-180.5,95.3
				s180.5,47.7,180.5,95.3S724,981.2,724,1028.9"/>
			<path class="st1" d="M938.3-82.4c0,47.7-180.5,47.7-180.5,95.3s180.5,47.6,180.5,95.3s-180.5,47.7-180.5,95.3
				s180.5,47.7,180.5,95.3s-180.5,47.6-180.5,95.3s180.5,47.7,180.5,95.3S757.8,537,757.8,584.7c0,47.7,180.5,47.7,180.5,95.3
				s-180.5,47.7-180.5,95.3s180.5,47.7,180.5,95.3s-180.5,47.7-180.5,95.3"/>
		</g>
	</g>
</g>
</svg>
