<svg xmlns="http://www.w3.org/2000/svg" viewBox="0 0 692.69 171.87"><defs><style>.cls-1{fill:#fff;}</style></defs><g id="Livello_2" data-name="Livello 2"><g id="Livello_1-2" data-name="Livello 1"><path class="cls-1" d="M159.69,0H100.1a3.26,3.26,0,0,0-3.26,3.25V51.57a3.25,3.25,0,0,1-5.53,2.32l-54-53A3.25,3.25,0,0,0,35.05,0H4.56A3.26,3.26,0,0,0,1.31,3.25v55a3.26,3.26,0,0,0,3.25,3.25H74.4a3.79,3.79,0,0,1,0,7.58H4.56a3.26,3.26,0,0,0-3.25,3.25v55a3.26,3.26,0,0,0,3.25,3.25h89a3.25,3.25,0,0,0,3.25-3.25v-55A3.25,3.25,0,0,0,93.59,69H89.12a3.79,3.79,0,0,1,0-7.58h70.57a3.25,3.25,0,0,0,3.25-3.25v-55A3.25,3.25,0,0,0,159.69,0"/><path class="cls-1" d="M619.24,61.46h70.2a3.26,3.26,0,0,0,3.25-3.25v-55A3.25,3.25,0,0,0,689.44,0H534.31a3.24,3.24,0,0,0-3.25,3.25v55a3.25,3.25,0,0,0,3.25,3.25h70.2a3.79,3.79,0,0,1,0,7.58h-70.2a3.25,3.25,0,0,0-3.25,3.25v54.95a3.25,3.25,0,0,0,3.25,3.26H689.44a3.26,3.26,0,0,0,3.25-3.26V72.29A3.26,3.26,0,0,0,689.44,69h-70.2a3.79,3.79,0,1,1,0-7.58"/><path class="cls-1" d="M512.86,0H482.62a3.25,3.25,0,0,0-2.56,1.25L437.85,53.6a3.24,3.24,0,0,1-5.12,0L390.52,1.25A3.25,3.25,0,0,0,388,0H357.73a3.26,3.26,0,0,0-3.26,3.25v124a3.26,3.26,0,0,0,3.26,3.25h70.52a3.26,3.26,0,0,0,3.25-3.25v-62h0a3.8,3.8,0,0,1,7.59,0h0v62a3.25,3.25,0,0,0,3.25,3.25h70.5a3.26,3.26,0,0,0,3.26-3.25V3.25A3.26,3.26,0,0,0,512.86,0"/><path class="cls-1" d="M258.71,10.54A54.71,54.71,0,1,1,204,65.25a54.82,54.82,0,0,1,54.71-54.71M336.27,0H181.14a3.26,3.26,0,0,0-3.25,3.25v124a3.26,3.26,0,0,0,3.25,3.25H336.27a3.25,3.25,0,0,0,3.25-3.25V3.25A3.25,3.25,0,0,0,336.27,0"/><path class="cls-1" d="M30.23,171.32H26c-.18-.3-.52-.8-1-1.5s-1.06-1.51-1.71-2.42l-4.39,0h-10l-2.15,0c-.62.83-1.18,1.6-1.68,2.29s-.87,1.24-1.13,1.63H0q1.29-1.6,3.2-4.09t3.78-5c1.25-1.67,2.42-3.23,3.49-4.69s1.84-2.54,2.31-3.23h4.53c.62.91,1.48,2.09,2.57,3.56s2.26,3,3.48,4.6,2.45,3.19,3.68,4.77S29.34,170.19,30.23,171.32Zm-15.32-6.14h3.24c1.22,0,2.4,0,3.53,0l-2.17-3-2-2.7L16,157.4,15,156c-.28.4-.63.89-1,1.45s-.89,1.24-1.45,2.06-1.22,1.72-1.95,2.71-1.45,2-2.17,2.93h6.5Z"/><path class="cls-1" d="M93.35,154.33h3.81q-.9,1.54-2.16,3.85t-2.56,4.73l-2.53,4.68c-.82,1.51-1.5,2.75-2,3.73h-4c-.3-.55-.65-1.2-1-1.94S82,167.85,81.58,167l-1.35-2.63c-.46-.91-.92-1.82-1.35-2.71s-.8-1.69-1.11-2.46l-.84-2h-.12c-.22.6-.5,1.29-.82,2.06s-.73,1.61-1.19,2.51-.89,1.72-1.36,2.6L72.08,167l-1.26,2.37-1.08,2H66.37c-.58-1-1.26-2.29-2.06-3.79s-1.64-3.05-2.5-4.64-1.72-3.14-2.57-4.66-1.61-2.83-2.28-3.9h3.86c.15.33.43.91.86,1.73s.9,1.74,1.43,2.76,1.07,2.05,1.63,3.12,1.05,2,1.49,2.86.92,1.71,1.23,2.31l.81,1.63h.09q.36-.75.9-1.77c.35-.68.76-1.49,1.23-2.44s1-1.92,1.45-2.9.94-1.92,1.36-2.81.81-1.73,1.17-2.51.64-1.44.85-2H79c.23.53.53,1.21.91,2s.79,1.72,1.23,2.66.91,1.91,1.4,2.89.94,1.88,1.38,2.7.94,1.78,1.28,2.44.62,1.24.85,1.73h.13c.23-.49.51-1.06.85-1.73s.76-1.46,1.24-2.4.89-1.78,1.42-2.82l1.51-3c.49-1,.94-1.87,1.33-2.69S93.2,154.72,93.35,154.33Z"/><path class="cls-1" d="M129.36,154.33H153a3.94,3.94,0,0,0,0,.52v1.21a3.3,3.3,0,0,0,0,.51l-5.27,0-5.42,0-5.14,0h-4.45v5.3h10.4l5.09,0,4.45,0c0,.25,0,.6,0,1s0,.8,0,1.09l-4.43,0-5.13,0-5.33,0h-5c0,.9,0,1.83,0,2.78s0,1.79,0,2.5l4.49,0,5.19,0,5.43,0,5.17,0a4.44,4.44,0,0,0,0,.55v1.28a4.22,4.22,0,0,0,0,.55H129.36c0-1.11.07-2.36.08-3.72s0-3,0-4.77,0-3.39,0-4.77S129.4,155.43,129.36,154.33Z"/><path class="cls-1" d="M206.17,162.67v.09a12.71,12.71,0,0,1,1.85.15,7.63,7.63,0,0,1,1.46.35,3.63,3.63,0,0,1,1.88,1.3,3.87,3.87,0,0,1,.59,2.23,3.63,3.63,0,0,1-1.93,3.5,11.56,11.56,0,0,1-5.41,1H187.55c.06-1.17.1-2.44.11-3.78s0-2.92,0-4.71,0-3.38,0-4.74,0-2.61-.11-3.76h16.77c2.59,0,4.47.35,5.61,1a3.54,3.54,0,0,1,1.73,3.23,3.94,3.94,0,0,1-.48,2,3.42,3.42,0,0,1-1.52,1.31,5.13,5.13,0,0,1-1.49.46C207.58,162.53,206.91,162.61,206.17,162.67Zm2.25-3.63a2.07,2.07,0,0,0-1.17-1.93,8.21,8.21,0,0,0-3.82-.65h-6l-6.62,0q0,1,0,2.37v2.78q3.45.09,6.52.06c2,0,4,0,5.81,0a8.72,8.72,0,0,0,4.06-.69A2.14,2.14,0,0,0,208.42,159Zm-4.94,10a8.47,8.47,0,0,0,3.87-.67,2.26,2.26,0,0,0,1.25-2.16,2.07,2.07,0,0,0-1.2-1.93,10,10,0,0,0-4.24-.63h-5.84c-2.12,0-4.28,0-6.49,0,0,1,0,1.9,0,2.8s0,1.73,0,2.47l7,.06Z"/><path class="cls-1" d="M263.79,162.51v.07c.47,0,.91.1,1.33.16a9.61,9.61,0,0,1,1.21.25,4.34,4.34,0,0,1,2.37,1.31,3.5,3.5,0,0,1,.71,2.29q0,2.57-3.1,3.85t-9.13,1.29c-4.52,0-7.77-.5-9.77-1.51s-3-2.42-3-4.27v-.61l.66,0h1.61l.68,0v.39c0,1.13.74,2,2.23,2.63s4,.92,7.56.92a37.08,37.08,0,0,0,4.48-.22,12.74,12.74,0,0,0,2.85-.63,3.13,3.13,0,0,0,1.47-1,2,2,0,0,0,.42-1.22c0-.86-.54-1.52-1.61-2a15.2,15.2,0,0,0-5.44-.68h-3.79c-1.31,0-2.68,0-4.12.07a5.92,5.92,0,0,0,0-.61v-1.17a3.39,3.39,0,0,0,0-.47l3.3.06c1.34,0,2.87,0,4.61,0a25.57,25.57,0,0,0,3.29-.17,9.73,9.73,0,0,0,2.14-.47,2.65,2.65,0,0,0,1.15-.76,1.58,1.58,0,0,0,.35-1,1.86,1.86,0,0,0-.4-1.19,3,3,0,0,0-1.43-.84,13.47,13.47,0,0,0-2.78-.5c-1.17-.11-2.65-.17-4.45-.17a21.61,21.61,0,0,0-7.26.86c-1.43.58-2.14,1.43-2.14,2.56a2.18,2.18,0,0,0,0,.25,2.26,2.26,0,0,1,0,.25l-.66,0h-1.63l-.66,0a3.25,3.25,0,0,1,0-.33v-.33a4.67,4.67,0,0,1,.66-2.48,5.15,5.15,0,0,1,2.09-1.8,13.22,13.22,0,0,1,3.79-1.1,36.83,36.83,0,0,1,5.7-.37q6.5,0,9.3,1.21c1.86.81,2.8,2,2.8,3.55a3.22,3.22,0,0,1-.72,2.12,4.14,4.14,0,0,1-2,1.28c-.36.1-.77.19-1.21.27S264.32,162.46,263.79,162.51Z"/><path class="cls-1" d="M326.29,161.51v-.38a3.75,3.75,0,0,0-2.55-3.46q-2.55-1.18-7.81-1.19a25.2,25.2,0,0,0-4.58.43,12.26,12.26,0,0,0-3.44,1.18,5.82,5.82,0,0,0-2.16,1.93,5.15,5.15,0,0,0,0,5.4,6.16,6.16,0,0,0,2.21,2,12.29,12.29,0,0,0,3.52,1.22,23.83,23.83,0,0,0,4.69.42,31.09,31.09,0,0,0,4.69-.3,10.82,10.82,0,0,0,3.13-.87,4,4,0,0,0,1.74-1.43,3.43,3.43,0,0,0,.55-1.93V164l.78,0h1.64l.77,0c0,.1,0,.21,0,.33s0,.22,0,.33a6.28,6.28,0,0,1-.63,2.8,5.44,5.44,0,0,1-2.15,2.23,13.31,13.31,0,0,1-4.09,1.46,33.07,33.07,0,0,1-6.45.53,29.94,29.94,0,0,1-6.15-.57,14.51,14.51,0,0,1-4.56-1.67,7.85,7.85,0,0,1-2.81-2.8,7.74,7.74,0,0,1-1-3.89,7.35,7.35,0,0,1,1-3.94,8.16,8.16,0,0,1,2.9-2.75,14.59,14.59,0,0,1,4.5-1.61,28.93,28.93,0,0,1,5.79-.54c4.46,0,7.83.57,10.12,1.69a5.47,5.47,0,0,1,3.43,5.16c0,.12,0,.24,0,.36s0,.24,0,.36l-.77,0h-1.62Z"/><path class="cls-1" d="M391,162.83a7.49,7.49,0,0,1-3.71,6.67q-3.71,2.37-10.71,2.37c-4.66,0-8.24-.79-10.71-2.37a7.48,7.48,0,0,1-3.72-6.67,7.74,7.74,0,0,1,1-3.89,8.17,8.17,0,0,1,2.81-2.83,14.63,14.63,0,0,1,4.54-1.74,32.53,32.53,0,0,1,12.23,0,14.47,14.47,0,0,1,4.53,1.74,8,8,0,0,1,2.8,2.83A7.74,7.74,0,0,1,391,162.83Zm-14.42,6.43q5.41,0,8.29-1.58a5.51,5.51,0,0,0,0-9.68c-1.92-1.07-4.68-1.61-8.26-1.61s-6.33.54-8.26,1.61a5.51,5.51,0,0,0,0,9.68Q371.15,169.26,376.54,169.26Z"/><path class="cls-1" d="M452.25,154.33h4c0,1.1-.06,2.33-.09,3.68s-.05,3-.05,4.79,0,3.37,0,4.69,0,2.61.1,3.83h-3.42c0-.62,0-1.3.05-2s0-1.53.05-2.34,0-1.66,0-2.54,0-1.75,0-2.63,0-1.48.06-2.22.07-1.45.1-2.13l-.18,0c-.38.56-.81,1.17-1.29,1.82s-1,1.31-1.57,2l-8.83,10.15h-1.72l-8.93-10.62c-.61-.73-1.14-1.4-1.61-2s-.89-1.22-1.27-1.78l-.23.07c0,.8.07,1.66.11,2.58s.06,1.78.07,2.58,0,1.76,0,2.54,0,1.54,0,2.26,0,1.43.06,2.15,0,1.47.1,2.25h-3.31c.05-1.2.08-2.48.09-3.81s0-2.91,0-4.71,0-3.44,0-4.79-.05-2.58-.08-3.68h4.69q1.5,1.74,3.67,4.38c1.45,1.76,3.05,3.7,4.78,5.82l1.4,1.75c.49.61,1,1.23,1.44,1.85h.24c.47-.62,1-1.24,1.45-1.86s1-1.19,1.41-1.72c.91-1,1.78-2.07,2.62-3.07l2.34-2.82,2-2.43C451.24,155.49,451.78,154.86,452.25,154.33Z"/><path class="cls-1" d="M491.38,154.33h15a24.67,24.67,0,0,1,3.88.27,7.71,7.71,0,0,1,2.78,1,4.47,4.47,0,0,1,1.69,1.84,6.43,6.43,0,0,1,.58,2.92q0,3.42-2.22,4.83c-1.48.93-3.73,1.4-6.73,1.4h-8c-1.06,0-2.3,0-3.72-.06,0,1,0,1.84.06,2.66s.05,1.54.1,2.19h-3.42c0-1.22.05-2.49.07-3.8s0-2.88,0-4.69,0-3.37,0-4.72S491.41,155.51,491.38,154.33Zm14.34,9.86a10.77,10.77,0,0,0,5-.83,3.15,3.15,0,0,0,1.42-3,3,3,0,0,0-1.44-3,11,11,0,0,0-4.93-.79h-5.53c-1.09,0-2.14,0-3.16,0l-2.46,0c0,1.29,0,2.55,0,3.81s0,2.45,0,3.58h1.75l2.64,0,3.21,0Z"/><path class="cls-1" d="M573.93,171.32h-4.22c-.18-.3-.52-.8-1-1.5s-1.06-1.51-1.71-2.42l-4.39,0h-10l-2.15,0c-.62.83-1.18,1.6-1.68,2.29s-.88,1.24-1.13,1.63H543.7q1.29-1.6,3.19-4.09t3.79-5l3.49-4.69c1.07-1.46,1.84-2.54,2.31-3.23H561c.62.91,1.48,2.09,2.57,3.56s2.26,3,3.48,4.6,2.45,3.19,3.68,4.77S573,170.19,573.93,171.32Zm-15.32-6.14h3.24c1.22,0,2.4,0,3.53,0l-2.17-3-2-2.7-1.51-2.07-1-1.39c-.29.4-.63.89-1,1.45s-.89,1.24-1.45,2.06-1.23,1.72-2,2.71-1.45,2-2.18,2.93h6.51Z"/><path class="cls-1" d="M627.92,154.33h3c0,1.09,0,2.33-.05,3.72s0,3,0,4.78v4.74c0,1.34,0,2.59,0,3.75h-3.19c-.46-.42-1.27-1.07-2.45-2s-2.53-1.87-4-3L616.4,163l-4.77-3.36c-.51-.36-1-.73-1.51-1.1s-.94-.72-1.35-1l0,0c0,.6,0,1.24.06,1.9l0,2q0,3.7,0,6.3c0,1.72,0,2.93.08,3.64h-3.11c0-1.13,0-2.38,0-3.75s0-2.95,0-4.74,0-3.38,0-4.75,0-2.62,0-3.75h3.76c.38.36,1.18,1,2.39,1.9s2.61,1.93,4.18,3.05,3.21,2.29,4.9,3.48l4.53,3.19q.67.48,1.35.93a10.77,10.77,0,0,1,1.19,1l0,0c0-.59,0-1.18-.07-1.78s0-1.17,0-1.73c0-1.12,0-2.19,0-3.23s0-2,0-2.85,0-1.64,0-2.32S628,154.71,627.92,154.33Z"/><path class="cls-1" d="M687.58,154.33H692c-.89.79-1.93,1.72-3.12,2.8s-2.37,2.18-3.56,3.31-2.35,2.22-3.45,3.28-2,2-2.76,2.73c0,.53,0,1.06,0,1.58s0,1,0,1.42,0,.82,0,1.15,0,.57,0,.72h-3.43c0-.15,0-.39,0-.72s0-.72,0-1.16,0-.92,0-1.45,0-1.05,0-1.58q-1.07-1.14-2.7-2.76c-1.1-1.08-2.25-2.17-3.45-3.29s-2.39-2.22-3.58-3.29-2.22-2-3.11-2.74h4.73c.23.26.6.64,1.12,1.16l1.75,1.69,2,1.92,1.77,1.76c.74.75,1.37,1.39,1.9,1.91s1,1,1.34,1.35h.18c.33-.38.75-.82,1.24-1.33l1.84-1.87c.51-.51,1.11-1.1,1.8-1.75l2-1.93c.66-.63,1.26-1.2,1.8-1.73A15.88,15.88,0,0,0,687.58,154.33Z"/></g></g></svg>