<svg xmlns="http://www.w3.org/2000/svg" viewBox="0 0 441.55 355.42"><g id="Livello_2" data-name="Livello 2"><g id="Livello_1-2" data-name="Livello 1"><path d="M208.16,0H129.83a4.27,4.27,0,0,0-4.27,4.27V67.78a4.27,4.27,0,0,1-7.27,3l-71-69.61a4.24,4.24,0,0,0-3-1.22H4.27A4.28,4.28,0,0,0,0,4.27V76.49a4.28,4.28,0,0,0,4.27,4.29H96.05a5,5,0,1,1,0,10H4.27A4.27,4.27,0,0,0,0,95v72.23a4.28,4.28,0,0,0,4.27,4.28h117a4.28,4.28,0,0,0,4.28-4.28V95a4.28,4.28,0,0,0-4.28-4.27h-5.87a5,5,0,0,1,0-10h92.75a4.29,4.29,0,0,0,4.28-4.29V4.27A4.28,4.28,0,0,0,208.16,0"/><path d="M345,264.68h92.27a4.27,4.27,0,0,0,4.27-4.27V188.18a4.28,4.28,0,0,0-4.27-4.28H233.39a4.28,4.28,0,0,0-4.28,4.28v72.23a4.28,4.28,0,0,0,4.28,4.27h92.26a5,5,0,1,1,0,10H233.39a4.28,4.28,0,0,0-4.28,4.28v72.22a4.27,4.27,0,0,0,4.28,4.27H437.28a4.27,4.27,0,0,0,4.27-4.27V278.93a4.28,4.28,0,0,0-4.27-4.28H345a5,5,0,0,1,0-10"/><path d="M210.21,183.91H170.47a4.28,4.28,0,0,0-3.37,1.65l-55.47,68.8a4.28,4.28,0,0,1-6.74,0l-55.47-68.8a4.28,4.28,0,0,0-3.37-1.65H6.32A4.28,4.28,0,0,0,2,188.18v163a4.28,4.28,0,0,0,4.28,4.27H99a4.27,4.27,0,0,0,4.27-4.27V269.67h0a5,5,0,0,1,10,0v81.48a4.27,4.27,0,0,0,4.27,4.27h92.67a4.27,4.27,0,0,0,4.27-4.27v-163a4.27,4.27,0,0,0-4.27-4.27"/><path d="M333.29,13.85a71.91,71.91,0,1,1-71.9,71.91,72,72,0,0,1,71.9-71.91M435.23,0H231.34a4.28,4.28,0,0,0-4.27,4.27v163a4.28,4.28,0,0,0,4.27,4.28H435.23a4.28,4.28,0,0,0,4.28-4.28V4.27A4.28,4.28,0,0,0,435.23,0"/><path d="M155.92,112h-1.61c-.06-.22-.17-.55-.34-1s-.35-1-.57-1.54l-1.32,0h-3.66c-.21.57-.41,1.08-.58,1.53s-.29.8-.37,1H146c.24-.53.56-1.28.95-2.23s.79-1.94,1.19-2.94l1.1-2.79c.34-.86.57-1.47.69-1.81h2c.15.35.39,1,.73,1.8s.7,1.76,1.1,2.74.79,2,1.19,2.92S155.65,111.41,155.92,112Zm-5-9-.33.88c-.13.36-.3.81-.51,1.36s-.38,1-.59,1.54-.43,1.12-.64,1.66l1.09,0h2l1.1,0-.66-1.7c-.22-.58-.42-1.1-.61-1.58s-.38-.93-.51-1.28S151,103.19,150.9,103Z"/><path d="M158.08,117.85h1.37c-.18.52-.41,1.23-.69,2.15s-.57,1.86-.86,2.84-.58,1.91-.84,2.79l-.61,2h-1.23l-.36,0c-.08-.26-.18-.61-.3-1.07s-.25-1-.4-1.51-.29-1.13-.45-1.73-.3-1.18-.44-1.73-.22-.88-.31-1.31-.18-.79-.24-1.12h-.05c-.07.34-.15.72-.25,1.16s-.21.87-.32,1.3l-.47,1.71-.48,1.7-.42,1.5c-.13.45-.24.82-.31,1.1H148.9c-.14-.49-.34-1.18-.59-2.07s-.52-1.82-.81-2.78-.56-1.9-.83-2.8-.51-1.61-.7-2.13h1.57a9.93,9.93,0,0,0,.24,1c.12.48.27,1,.43,1.62s.33,1.23.5,1.88l.48,1.84c.14.48.25.91.34,1.28s.16.69.22,1h.05c.06-.28.15-.61.24-1s.22-.8.35-1.29.29-1.12.46-1.74.32-1.22.47-1.81l.42-1.63q.18-.75.27-1.17h1.61q.09.42.27,1.14c.12.49.24,1,.38,1.59s.29,1.19.45,1.83.32,1.24.47,1.82.24.89.33,1.28.17.71.23,1h.07c.06-.27.15-.59.25-1l.33-1.27.47-1.79c.18-.66.35-1.28.51-1.88s.31-1.14.44-1.64S158,118.1,158.08,117.85Z"/><path d="M174.63,117.85v.55c0,.1,0,.21,0,.33a2,2,0,0,0,0,.28H173l-1.56,0h-2.81v3.19h3.05l2.8,0c0,.13,0,.32,0,.56v.56l-1.33,0h-4.51v3.24h4.4l1.57,0a2.44,2.44,0,0,0,0,.29c0,.12,0,.23,0,.33v.58h-7.31c0-.6,0-1.31,0-2.12s0-1.74,0-2.77,0-2,0-2.81,0-1.53,0-2.08Z"/><path d="M189,122.66v.07a7.11,7.11,0,0,1,.71.07,2.18,2.18,0,0,1,.56.14,1.85,1.85,0,0,1,1,.73,2.67,2.67,0,0,1-.52,3.32,4.4,4.4,0,0,1-2.6.64h-4.6c0-.65,0-1.37.05-2.16s0-1.7,0-2.73,0-1.95,0-2.75,0-1.51-.05-2.14H188a4.71,4.71,0,0,1,2.65.58,2.12,2.12,0,0,1,.84,1.89,2.47,2.47,0,0,1-.28,1.27,2.11,2.11,0,0,1-.85.76,2.27,2.27,0,0,1-.59.2A5,5,0,0,1,189,122.66Zm1.17-2.17a1.34,1.34,0,0,0-.59-1.26,3.94,3.94,0,0,0-1.91-.35h-1.3l-1.44,0c0,.42,0,.92,0,1.5v1.77l1.43,0h1.26a3.46,3.46,0,0,0,2-.46A1.5,1.5,0,0,0,190.16,120.49Zm-2.45,6a4,4,0,0,0,2-.37,1.49,1.49,0,0,0,.59-1.36,1.41,1.41,0,0,0-.62-1.27,3.84,3.84,0,0,0-2-.4h-1.29l-1.43,0c0,.6,0,1.19,0,1.78s0,1.1,0,1.57l1.5,0Z"/><path d="M205.44,122.58v.07l.41.07.36.1a2.21,2.21,0,0,1,1.2.82,2.43,2.43,0,0,1,.37,1.37,2.34,2.34,0,0,1-1.06,2,5.11,5.11,0,0,1-3,.75,4.79,4.79,0,0,1-3-.79,2.6,2.6,0,0,1-1-2.15v-.19a1.22,1.22,0,0,0,0-.21l.29,0h.67l.28,0v.34a1.71,1.71,0,0,0,.66,1.41,3.42,3.42,0,0,0,2.07.52,3.56,3.56,0,0,0,2.15-.5,1.68,1.68,0,0,0,.63-1.38,1.45,1.45,0,0,0-.62-1.26,3.34,3.34,0,0,0-1.95-.45h-.79l-.85,0a2.48,2.48,0,0,0,0-.29c0-.1,0-.2,0-.3v-.26a1.79,1.79,0,0,0,0-.23l.68,0,1,0a3,3,0,0,0,1.89-.47,1.49,1.49,0,0,0,.56-1.21,1.42,1.42,0,0,0-.64-1.24,3.54,3.54,0,0,0-2-.44,3.2,3.2,0,0,0-2,.49,1.61,1.61,0,0,0-.62,1.32V121l-.28,0h-.67l-.29,0a2.54,2.54,0,0,1,0-.26v-.27a2.48,2.48,0,0,1,.93-2,4.47,4.47,0,0,1,2.92-.79,4.91,4.91,0,0,1,2.94.73,2.23,2.23,0,0,1-.42,4,1.89,1.89,0,0,1-.38.12A2.88,2.88,0,0,1,205.44,122.58Z"/><path d="M154.09,137.45v-.29a2.5,2.5,0,0,0-.73-2,3.15,3.15,0,0,0-2.14-.64,3.94,3.94,0,0,0-1.3.21,2.5,2.5,0,0,0-1,.66,3.11,3.11,0,0,0-.67,1.16,5.24,5.24,0,0,0-.25,1.74,5.5,5.5,0,0,0,.25,1.76,3.44,3.44,0,0,0,.67,1.23,2.61,2.61,0,0,0,1,.71,3.61,3.61,0,0,0,1.33.23,2.87,2.87,0,0,0,2.15-.7,2.62,2.62,0,0,0,.69-1.93v-.3h1.31c0,.06,0,.12,0,.18s0,.13,0,.21a3.66,3.66,0,0,1-1,2.74,4.36,4.36,0,0,1-3.12,1,5.43,5.43,0,0,1-1.89-.31,3.94,3.94,0,0,1-1.48-.94,4.47,4.47,0,0,1-1-1.6,7,7,0,0,1-.34-2.27,5.18,5.18,0,0,1,1.24-3.69,4.54,4.54,0,0,1,3.42-1.3,5.68,5.68,0,0,1,1.85.27,3.53,3.53,0,0,1,1.29.74,2.87,2.87,0,0,1,.75,1.15,4.33,4.33,0,0,1,.24,1.48v.24a2.29,2.29,0,0,1,0,.25h-1.3Z"/><path d="M173,138.31a6.72,6.72,0,0,1-.33,2.19,4.61,4.61,0,0,1-.94,1.62,4.1,4.1,0,0,1-1.48,1,5.45,5.45,0,0,1-1.94.34,5.56,5.56,0,0,1-2-.34,4.1,4.1,0,0,1-1.48-1,4.59,4.59,0,0,1-.93-1.62,7,7,0,0,1-.32-2.19,6.36,6.36,0,0,1,.34-2.18,4.22,4.22,0,0,1,1-1.56,3.87,3.87,0,0,1,1.48-.94,5.3,5.3,0,0,1,1.92-.32,5.37,5.37,0,0,1,1.92.32,3.87,3.87,0,0,1,1.48.94,4.36,4.36,0,0,1,1,1.56A6.36,6.36,0,0,1,173,138.31Zm-4.69,3.94a3.11,3.11,0,0,0,2.44-1,5.17,5.17,0,0,0,0-5.8,3.22,3.22,0,0,0-2.44-1,3.17,3.17,0,0,0-2.44,1,4,4,0,0,0-.91,2.89,4.18,4.18,0,0,0,.9,2.92A3.16,3.16,0,0,0,168.27,142.25Z"/><path d="M192.19,143.26h-1.38q.06-1.53.06-2.94c0-.93,0-2,0-3.08,0-.39,0-.79,0-1.21s0-.82,0-1.21h-.06c-.12.37-.26.76-.42,1.16s-.31.78-.47,1.12l-2.82,6.17h-.64l-2.87-6.3c-.16-.36-.33-.73-.48-1.12s-.3-.75-.43-1.1h-.07c0,.44,0,.89.05,1.37s0,.91,0,1.32c0,.57,0,1.1,0,1.58s0,.95,0,1.4,0,.91,0,1.37,0,1,0,1.47h-1.27c0-.7,0-1.43,0-2.2s0-1.66,0-2.7,0-2,0-2.75,0-1.49,0-2.12h1.74c.11.23.27.55.46,1l.67,1.44c.25.53.51,1.11.79,1.72s.57,1.23.84,1.84c.13.27.26.59.41.95s.3.71.43,1.05h0c.13-.33.27-.66.42-1s.29-.66.43-1c.28-.6.55-1.2.82-1.82l.78-1.72c.24-.54.46-1,.66-1.46s.36-.77.47-1h1.62c0,.63,0,1.34,0,2.12s0,1.69,0,2.75,0,1.94,0,2.7S192.17,142.56,192.19,143.26Z"/><path d="M147.32,149.13h4a4.35,4.35,0,0,1,2.74.79,3.18,3.18,0,0,1,1,2.66,3.84,3.84,0,0,1-.27,1.51,2.56,2.56,0,0,1-.78,1,3.39,3.39,0,0,1-1.22.59,6,6,0,0,1-1.59.2h-1.74l-.77,0q0,.88,0,1.65c0,.51,0,1,0,1.36h-1.47c0-.7,0-1.43,0-2.2s0-1.65,0-2.69,0-1.94,0-2.73S147.34,149.78,147.32,149.13Zm3.64,5.64a3.68,3.68,0,0,0,2.13-.5,2,2,0,0,0,.69-1.7,2.12,2.12,0,0,0-.69-1.76,3.16,3.16,0,0,0-2-.54H148.7v4.44l.92,0Z"/><path d="M171.53,158.9h-1.61c-.06-.22-.17-.55-.34-1s-.35-1-.57-1.54l-1.32,0H164c-.21.57-.41,1.08-.58,1.53s-.29.81-.37,1H161.6c.24-.53.56-1.27,1-2.23s.8-1.94,1.19-2.94.76-1.92,1.1-2.79.57-1.47.69-1.81h2c.15.35.39,1,.73,1.8l1.1,2.74c.4,1,.79,2,1.19,2.92S171.26,158.32,171.53,158.9Zm-5-9c-.09.23-.2.53-.33.88l-.5,1.36c-.19.47-.38,1-.6,1.54s-.43,1.12-.64,1.66l1.09,0h2l1.1,0-.66-1.7c-.22-.58-.42-1.1-.61-1.58s-.37-.93-.5-1.28S166.6,150.1,166.51,149.86Z"/><path d="M186.39,149.13h1.28c0,.56,0,1.26,0,2.08s0,1.76,0,2.79v2.77c0,.78,0,1.49,0,2.13h-1.4q-.21-.37-.69-1.11l-1.12-1.62-1.33-1.89-1.34-1.9c-.21-.32-.41-.64-.6-1s-.37-.64-.52-.94h0c0,.4.05.8.06,1.19s0,.76,0,1.12v3.9c0,1.05,0,1.78,0,2.21h-1.27c0-.63,0-1.34,0-2.14v-5.53c0-.83,0-1.53,0-2.1h1.64c.12.21.34.54.67,1l1.12,1.6,1.32,1.88c.46.65.89,1.27,1.28,1.84.17.25.34.54.53.86s.35.63.49.93l0,0c0-.37-.06-.74-.08-1.1s0-.71,0-1c0-.57,0-1.16,0-1.76s0-1.18,0-1.72,0-1,0-1.46S186.4,149.37,186.39,149.13Z"/><path d="M202.79,149.13h1.57c-.22.34-.51.81-.86,1.43s-.72,1.26-1.08,1.92l-1,1.92c-.33.61-.59,1.08-.76,1.41v1c0,.33,0,.63,0,.91s0,.52,0,.73,0,.38,0,.48h-1.38c0-.1,0-.26,0-.47s0-.45,0-.73v-1.86c-.16-.33-.41-.81-.74-1.44s-.68-1.27-1.05-1.94-.73-1.32-1.09-1.93-.66-1.08-.88-1.4h1.71c.06.14.16.35.31.65l.49,1c.19.35.37.72.56,1.1l.52,1,.45.91c.15.3.27.56.36.77h.12c.1-.2.21-.45.35-.74s.28-.58.43-.87l.54-1.06c.21-.39.4-.77.6-1.13l.51-1C202.63,149.48,202.73,149.27,202.79,149.13Z"/></g></g></svg>